<svg width="38" height="38" viewBox="0 0 38 38" fill="none" xmlns="http://www.w3.org/2000/svg">
<g clip-path="url(#clip0)">
<path d="M35.9921 15.0095C34.6434 14.7556 33.3265 15.5965 32.9933 16.9293L31.5574 22.2922C30.6451 21.721 29.4789 21.7606 28.6063 22.3953C28.5428 22.4429 22.8944 26.0366 22.8944 26.0366C20.8635 27.3059 19.6259 29.5352 19.6338 31.9389V37.3097C19.6338 37.6588 19.9194 37.9444 20.2685 37.9444C20.6175 37.9444 20.9031 37.6588 20.9031 37.3097V31.9389C20.8952 29.9794 21.9027 28.1548 23.5687 27.1155C23.5687 27.1155 29.3044 23.4742 29.3203 23.4583C29.828 23.03 30.5737 23.0617 31.0497 23.5139C31.5336 23.9978 31.5495 24.7673 31.0814 25.2671L26.8689 28.2262C26.5833 28.4245 26.5119 28.8212 26.7182 29.1068C26.9165 29.3924 27.3132 29.4638 27.5988 29.2575L31.8589 26.2588C31.8906 26.235 31.9144 26.2112 31.9462 26.1874C32.6363 25.4892 32.8664 24.4579 32.5332 23.5377L34.215 17.2625C34.3816 16.5882 35.0322 16.1439 35.7224 16.255C36.3094 16.3819 36.7219 16.8976 36.7299 17.4926C36.7299 17.6036 36.714 17.7147 36.6902 17.8258L34.4054 26.354C34.3182 26.6792 34.1516 26.9728 33.9136 27.2107L29.1695 31.9548C28.3365 32.7878 27.8685 33.9143 27.8685 35.0884V37.3176C27.8685 37.6667 28.1541 37.9523 28.5031 37.9523C28.8522 37.9523 29.1378 37.6667 29.1378 37.3176V35.0884C29.1378 34.2475 29.471 33.4383 30.066 32.8512L34.81 28.1072C35.2067 27.7105 35.4844 27.2266 35.6272 26.6872L37.9119 18.159C37.9675 17.9448 37.9992 17.7226 37.9992 17.5005C37.9913 16.2947 37.1583 15.2634 35.9921 15.0095Z" fill="#487FB7"/>
<path d="M15.1043 26.0369C15.1043 26.0369 9.49557 22.4907 9.45591 22.4511C8.58326 21.7609 7.37741 21.7053 6.44129 22.2924L5.00539 16.9375C4.68012 15.5968 3.36321 14.7559 2.00664 15.0097C1.32438 15.1525 0.737327 15.573 0.3724 16.168C0.00747288 16.763 -0.0956587 17.4769 0.0788716 18.1513L2.36363 26.6795C2.50643 27.2189 2.79202 27.7108 3.18075 28.0995L7.9248 32.8435C8.51979 33.4385 8.85298 34.2398 8.85298 35.0807V37.3099C8.85298 37.659 9.13858 37.9446 9.48764 37.9446C9.8367 37.9446 10.1223 37.659 10.1223 37.3099V35.0807C10.1223 33.9066 9.65424 32.7721 8.82125 31.9471L4.0772 27.203C3.83921 26.965 3.67261 26.6715 3.58534 26.3463L1.30852 17.8181C1.27678 17.7149 1.26885 17.6039 1.26885 17.4928C1.27678 16.8978 1.68931 16.3822 2.27637 16.2552C2.96655 16.1442 3.62501 16.5884 3.78367 17.2628L5.46551 23.5379C5.13232 24.4582 5.35445 25.4974 6.05257 26.1876C6.07637 26.2114 6.1081 26.2352 6.13983 26.259L10.4 29.2498C10.6856 29.4481 11.0822 29.3847 11.2805 29.0991C11.4789 28.8135 11.4154 28.4168 11.1298 28.2185L6.91729 25.2594C6.45716 24.7596 6.47303 23.9822 6.94902 23.5062C7.41708 23.0619 8.139 23.0223 8.64672 23.4189C8.67845 23.4427 14.438 27.1078 14.438 27.1078C16.1039 28.1471 17.1114 29.9717 17.1035 31.9392V37.3099C17.1035 37.659 17.3891 37.9446 17.7382 37.9446C18.0872 37.9446 18.3728 37.659 18.3728 37.3099V31.9392C18.3728 29.5354 17.1432 27.3062 15.1043 26.0369Z" fill="#487FB7"/>
<path d="M18.9605 25.3704L7.19559 14.2639C4.83149 11.9078 4.11751 8.35368 5.39475 5.26767C6.67199 2.18166 9.67868 0.166625 13.0186 0.166625C15.3112 0.166625 17.4532 1.82466 18.8494 3.2209L18.9526 3.32404L19.0398 3.22884C20.4361 1.82466 22.586 0.158691 24.8945 0.158691C28.2265 0.158691 31.2332 2.16579 32.5104 5.24387C33.7877 8.32195 33.0895 11.8681 30.7413 14.2322L30.7254 14.248L18.9605 25.3704ZM13.0186 1.43594C10.1943 1.43594 7.64778 3.14157 6.56886 5.74366C5.48995 8.35368 6.08494 11.3524 8.0841 13.3516L18.9605 23.6251L29.8528 13.3278C31.8361 11.3286 32.4231 8.32988 31.3442 5.72779C30.2574 3.11777 27.7108 1.428 24.8945 1.428C23.4348 1.428 21.6737 2.38792 19.9442 4.12529L18.9605 5.11694L17.9609 4.11736C16.7313 2.89564 14.8829 1.43594 13.0186 1.43594Z" fill="#487FB7"/>
</g>
<defs>
<clipPath id="clip0">
<rect width="38" height="38" fill="white"/>
</clipPath>
</defs>
</svg>
