<svg width="38" height="38" viewBox="0 0 38 38" fill="none" xmlns="http://www.w3.org/2000/svg">
<g clip-path="url(#clip0)">
<path d="M35.9929 15.01C34.6443 14.7561 33.3274 15.597 32.9942 16.9298L31.5583 22.2927C30.646 21.7215 29.4798 21.7611 28.6071 22.3958C28.5437 22.4434 22.8952 26.0371 22.8952 26.0371C20.8643 27.3064 19.6267 29.5357 19.6347 31.9394V37.3102C19.6347 37.6593 19.9203 37.9448 20.2693 37.9448C20.6184 37.9448 20.904 37.6593 20.904 37.3102V31.9394C20.8961 29.9799 21.9036 28.1553 23.5695 27.116C23.5695 27.116 29.3053 23.4747 29.3211 23.4588C29.8288 23.0304 30.5746 23.0622 31.0506 23.5144C31.5345 23.9983 31.5503 24.7678 31.0823 25.2676L26.8698 28.2267C26.5842 28.425 26.5128 28.8217 26.719 29.1073C26.9174 29.3929 27.314 29.4643 27.5996 29.258L31.8597 26.2593C31.8915 26.2355 31.9153 26.2117 31.947 26.1879C32.6372 25.4897 32.8673 24.4584 32.5341 23.5382L34.2159 17.263C34.3825 16.5887 35.033 16.1444 35.7232 16.2555C36.3103 16.3824 36.7228 16.8981 36.7307 17.4931C36.7307 17.6041 36.7149 17.7152 36.6911 17.8263L34.4063 26.3545C34.319 26.6797 34.1524 26.9732 33.9144 27.2112L29.1704 31.9553C28.3374 32.7883 27.8693 33.9148 27.8693 35.0889V37.3181C27.8693 37.6672 28.1549 37.9528 28.504 37.9528C28.8531 37.9528 29.1387 37.6672 29.1387 37.3181V35.0889C29.1387 34.248 29.4718 33.4388 30.0668 32.8517L34.8109 28.1077C35.2076 27.711 35.4852 27.2271 35.628 26.6876L37.9128 18.1595C37.9683 17.9453 38 17.7231 38 17.501C37.9921 16.2952 37.1591 15.2638 35.9929 15.01Z" fill="#487FB7"/>
<path d="M15.1048 26.0371C15.1048 26.0371 9.49606 22.491 9.45639 22.4513C8.58374 21.7611 7.3779 21.7056 6.44178 22.2926L5.00587 16.9377C4.68061 15.597 3.3637 14.7561 2.00713 15.01C1.32487 15.1528 0.737815 15.5732 0.372888 16.1682C0.00796116 16.7632 -0.0951704 17.4772 0.0793599 18.1515L2.36412 26.6797C2.50692 27.2192 2.79251 27.711 3.18124 28.0997L7.92529 32.8438C8.52028 33.4388 8.85347 34.24 8.85347 35.0809V37.3102C8.85347 37.6592 9.13907 37.9448 9.48813 37.9448C9.83719 37.9448 10.1228 37.6592 10.1228 37.3102V35.0809C10.1228 33.9068 9.65472 32.7724 8.82174 31.9473L4.07769 27.2033C3.83969 26.9653 3.6731 26.6718 3.58583 26.3465L1.309 17.8183C1.27727 17.7152 1.26934 17.6041 1.26934 17.4931C1.27727 16.8981 1.6898 16.3824 2.27685 16.2555C2.96704 16.1444 3.6255 16.5887 3.78416 17.263L5.466 23.5382C5.1328 24.4584 5.35493 25.4977 6.05306 26.1878C6.07685 26.2116 6.10859 26.2354 6.14032 26.2592L10.4004 29.2501C10.686 29.4484 11.0827 29.3849 11.281 29.0993C11.4794 28.8137 11.4159 28.4171 11.1303 28.2187L6.91777 25.2597C6.45765 24.7599 6.47351 23.9824 6.94951 23.5064C7.41756 23.0622 8.13948 23.0225 8.64721 23.4192C8.67894 23.443 14.4384 27.1081 14.4384 27.1081C16.1044 28.1473 17.1119 29.972 17.104 31.9394V37.3102C17.104 37.6592 17.3896 37.9448 17.7387 37.9448C18.0877 37.9448 18.3733 37.6592 18.3733 37.3102V31.9394C18.3733 29.5356 17.1437 27.3064 15.1048 26.0371Z" fill="#487FB7"/>
<path d="M18.9603 25.3699L7.19534 14.2634C4.83125 11.9073 4.11726 8.35319 5.39451 5.26718C6.67175 2.18117 9.67843 0.166136 13.0183 0.166136C15.311 0.166136 17.453 1.82417 18.8492 3.22042L18.9523 3.32355L19.0396 3.22835C20.4358 1.82417 22.5857 0.158203 24.8943 0.158203C28.2262 0.158203 31.2329 2.1653 32.5102 5.24338C33.7874 8.32146 33.0893 11.8676 30.7411 14.2317L30.7252 14.2476L18.9603 25.3699Z" fill="#487FB7"/>
</g>
<defs>
<clipPath id="clip0">
<rect width="38" height="38" fill="white"/>
</clipPath>
</defs>
</svg>
