<svg xmlns:dc="http://purl.org/dc/elements/1.1/" xmlns:cc="http://creativecommons.org/ns#"
  xmlns:rdf="http://www.w3.org/1999/02/22-rdf-syntax-ns#" xmlns:svg="http://www.w3.org/2000/svg"
  xmlns="http://www.w3.org/2000/svg" viewBox="0 0 600 500" height="500" width="600"
  xml:space="preserve" id="svg2" version="1.1">
  <metadata id="metadata8">
    <rdf:RDF>
      <cc:Work rdf:about="">
        <dc:format>image/svg+xml</dc:format>
        <dc:type rdf:resource="http://purl.org/dc/dcmitype/StillImage" />
      </cc:Work>
    </rdf:RDF>
  </metadata>
  <defs id="defs6">
    <clipPath id="clipPath18" clipPathUnits="userSpaceOnUse">
      <path id="path16" d="M 0,500 H 500 V 0 H 0 Z" />
    </clipPath>
    <clipPath id="clipPath166" clipPathUnits="userSpaceOnUse">
      <path id="path164" d="M 0,500 H 500 V 0 H 0 Z" />
    </clipPath>
    <clipPath id="clipPath178" clipPathUnits="userSpaceOnUse">
      <path id="path176" d="M 0,500 H 500 V 0 H 0 Z" />
    </clipPath>
    <clipPath id="clipPath190" clipPathUnits="userSpaceOnUse">
      <path id="path188" d="M 0,500 H 500 V 0 H 0 Z" />
    </clipPath>
    <clipPath id="clipPath374" clipPathUnits="userSpaceOnUse">
      <path id="path372" d="M 0,500 H 500 V 0 H 0 Z" />
    </clipPath>
    <clipPath id="clipPath386" clipPathUnits="userSpaceOnUse">
      <path id="path384" d="m 297.779,289.725 h 36.833 v -93.044 h -36.833 z" />
    </clipPath>
    <clipPath id="clipPath402" clipPathUnits="userSpaceOnUse">
      <path id="path400" d="m 334.323,289.725 h 36.562 v -93.044 h -36.562 z" />
    </clipPath>
    <clipPath id="clipPath418" clipPathUnits="userSpaceOnUse">
      <path id="path416" d="M 323.074,264.274 H 346.15 V 231.663 H 323.074 Z" />
    </clipPath>
    <clipPath id="clipPath446" clipPathUnits="userSpaceOnUse">
      <path id="path444" d="M 0,500 H 500 V 0 H 0 Z" />
    </clipPath>
  </defs>
  <g transform="matrix(1.3333333,0,0,-1.3333333,0,600)" id="g10">
    <g id="g12">
      <g clip-path="url(#clipPath18)" id="g14">
        <g transform="translate(99.2394,99.945)" id="g20">
          <path id="path22" style="fill:#ececec;fill-opacity:1;fill-rule:nonzero;stroke:none"
            d="m 0,0 c 13.836,11.321 15.627,30.363 13.668,47.186 -0.327,2.808 -0.257,5.803 -1.816,8.162 -1.56,2.359 -4.864,3.786 -7.323,2.388 -2.037,-1.158 -2.762,-3.667 -3.783,-5.777 -1.358,-2.807 -3.526,-5.216 -6.175,-6.86 -1.741,-1.08 -3.942,-1.834 -5.816,-1.005 -2.571,1.136 -3.135,4.468 -3.347,7.272 -0.394,5.222 -0.788,10.445 -1.182,15.667 -0.212,2.803 -0.436,5.662 -1.537,8.248 -1.1,2.586 -3.251,4.895 -6.012,5.419 -2.761,0.523 -5.974,-1.289 -6.32,-4.077 -0.144,-1.16 0.189,-2.325 0.206,-3.494 0.016,-1.168 -0.428,-2.501 -1.521,-2.918 -1.105,-0.421 -2.305,0.28 -3.221,1.029 -3.16,2.587 -5.446,6.067 -7.6,9.536 -2.154,3.47 -4.26,7.03 -7.17,9.895 -2.909,2.866 -6.786,5.007 -10.868,4.899 -4.083,-0.107 -8.21,-2.94 -8.915,-6.964 -0.707,-4.033 1.955,-7.846 4.756,-10.833 4.156,-4.432 8.956,-8.258 14.203,-11.321 0.946,-0.553 1.971,-1.15 2.398,-2.159 0.769,-1.816 -0.872,-3.819 -2.689,-4.587 -2.06,-0.869 -4.372,-0.842 -6.563,-1.281 -2.192,-0.441 -4.511,-1.601 -5.179,-3.734 -0.927,-2.96 1.744,-5.759 4.291,-7.528 5.101,-3.541 10.814,-6.2 16.808,-7.825 2.15,-0.583 4.4,-1.063 6.202,-2.371 1.802,-1.31 3.024,-3.742 2.169,-5.799 -0.856,-2.06 -3.415,-2.905 -5.635,-2.686 -2.219,0.22 -4.272,1.231 -6.42,1.834 -4.018,1.132 -9.032,0.452 -11.258,-3.081 -1.463,-2.321 -1.358,-5.379 -0.314,-7.917 1.043,-2.538 2.91,-4.643 4.867,-6.566 6.843,-6.724 15.321,-11.891 24.62,-14.24 C -17.175,-3.839 -8.725,-3.986 0,0" />
        </g>
        <g transform="translate(100.4528,87.4499)" id="g24">
          <path id="path26" style="fill:#e1e1e1;fill-opacity:1;fill-rule:nonzero;stroke:none"
            d="m 0,0 c -1.17,6.63 -3.304,14.396 -6.533,22.691 -3.214,8.304 -7.501,17.116 -12.305,26.183 -1.21,2.261 -2.405,4.496 -3.583,6.698 -1.181,2.198 -2.35,4.374 -3.629,6.434 -2.539,4.13 -5.298,7.91 -8.032,11.418 -2.733,3.51 -5.457,6.742 -8.026,9.747 -2.576,3 -5.03,5.752 -7.376,8.166 -4.677,4.845 -8.909,8.306 -11.912,10.566 -1.501,1.135 -2.693,1.979 -3.509,2.541 -0.396,0.27 -0.705,0.481 -0.93,0.634 -0.211,0.141 -0.325,0.203 -0.325,0.203 0,0 0.097,-0.087 0.3,-0.239 0.218,-0.161 0.52,-0.383 0.906,-0.667 0.798,-0.585 1.975,-1.449 3.457,-2.603 2.969,-2.298 7.16,-5.784 11.797,-10.644 2.326,-2.421 4.763,-5.179 7.325,-8.186 2.555,-3.012 5.265,-6.25 7.984,-9.758 2.72,-3.507 5.465,-7.281 7.987,-11.396 1.27,-2.052 2.429,-4.213 3.611,-6.416 1.177,-2.202 2.371,-4.436 3.58,-6.697 4.8,-9.061 9.09,-17.851 12.316,-26.126 C -3.656,14.282 -1.5,6.55 -0.294,-0.053" />
        </g>
        <g transform="translate(74.2931,149.489)" id="g28">
          <path id="path30" style="fill:#e1e1e1;fill-opacity:1;fill-rule:nonzero;stroke:none"
            d="m 0,0 c 0.029,-0.003 0.085,0.432 0.161,1.219 0.079,0.786 0.16,1.927 0.241,3.339 0.164,2.821 0.263,6.725 0.361,11.031 0.098,4.307 0.265,8.201 0.49,11.012 0.108,1.406 0.21,2.544 0.292,3.328 0.077,0.785 0.107,1.222 0.077,1.226 C 1.594,31.16 1.509,30.73 1.381,29.95 1.249,29.17 1.101,28.034 0.955,26.628 0.651,23.815 0.437,19.91 0.338,15.6 0.247,11.331 0.165,7.469 0.102,4.57 0.06,3.22 0.023,2.096 -0.004,1.229 -0.029,0.439 -0.029,0.002 0,0" />
        </g>
        <g transform="translate(37.2589,153.2106)" id="g32">
          <path id="path34" style="fill:#e1e1e1;fill-opacity:1;fill-rule:nonzero;stroke:none"
            d="m 0,0 c 0,-0.015 0.132,-0.024 0.38,-0.03 0.299,-0.001 0.657,-0.002 1.088,-0.003 0.944,0.001 2.308,0.007 3.994,-0.043 3.371,-0.071 8.026,-0.338 13.145,-0.86 5.121,-0.532 9.732,-1.212 13.053,-1.805 1.662,-0.285 3,-0.553 3.926,-0.735 0.423,-0.08 0.776,-0.147 1.069,-0.204 0.245,-0.042 0.375,-0.056 0.379,-0.042 0.004,0.014 -0.12,0.057 -0.36,0.126 -0.288,0.077 -0.635,0.17 -1.051,0.282 -0.916,0.23 -2.248,0.544 -3.908,0.868 -3.313,0.67 -7.932,1.399 -13.065,1.932 C 13.519,0.01 8.848,0.229 5.466,0.224 3.776,0.234 2.408,0.185 1.464,0.132 1.033,0.102 0.676,0.077 0.377,0.056 0.13,0.033 -0.001,0.015 0,0" />
        </g>
        <g transform="translate(93.4591,110.7839)" id="g36">
          <path id="path38" style="fill:#e1e1e1;fill-opacity:1;fill-rule:nonzero;stroke:none"
            d="m 0,0 c 0.014,-0.005 0.084,0.154 0.204,0.462 0.133,0.353 0.301,0.803 0.51,1.357 0.438,1.18 1.031,2.903 1.736,5.039 1.414,4.273 3.186,10.233 5.057,16.835 1.873,6.604 3.597,12.571 4.936,16.862 0.666,2.104 1.211,3.826 1.606,5.077 0.178,0.564 0.322,1.022 0.434,1.381 0.095,0.318 0.138,0.487 0.124,0.492 -0.014,0.005 -0.084,-0.155 -0.205,-0.464 -0.132,-0.352 -0.3,-0.802 -0.509,-1.356 -0.438,-1.18 -1.03,-2.902 -1.735,-5.039 C 10.743,36.374 8.971,30.414 7.1,23.809 5.227,17.207 3.503,11.241 2.164,6.949 1.498,4.846 0.953,3.124 0.558,1.873 0.38,1.308 0.237,0.85 0.125,0.49 0.029,0.174 -0.014,0.005 0,0" />
        </g>
        <g transform="translate(43.716,122.2087)" id="g40">
          <path id="path42" style="fill:#e1e1e1;fill-opacity:1;fill-rule:nonzero;stroke:none"
            d="m 0,0 c -0.002,-0.014 0.169,-0.064 0.499,-0.147 0.375,-0.088 0.855,-0.201 1.448,-0.34 1.312,-0.3 3.12,-0.712 5.332,-1.217 4.499,-1.033 10.698,-2.537 17.541,-4.215 6.847,-1.677 13.06,-3.137 17.58,-4.096 2.261,-0.48 4.092,-0.851 5.362,-1.085 0.601,-0.107 1.087,-0.195 1.465,-0.262 0.336,-0.056 0.513,-0.077 0.516,-0.063 0.004,0.014 -0.169,0.064 -0.499,0.147 -0.374,0.088 -0.854,0.201 -1.448,0.34 -1.311,0.299 -3.119,0.711 -5.331,1.216 -4.5,1.034 -10.698,2.538 -17.544,4.216 -6.844,1.677 -13.058,3.136 -17.577,4.095 -2.26,0.479 -4.092,0.851 -5.363,1.085 -0.6,0.108 -1.085,0.195 -1.464,0.264 C 0.181,-0.008 0.003,0.015 0,0" />
        </g>
        <g transform="translate(145.2824,306.9709)" id="g44">
          <path id="path46" style="fill:#ffffff;fill-opacity:1;fill-rule:nonzero;stroke:none"
            d="M 0,0 -72.301,-21.753 -86.963,26.98 -14.662,48.733 Z" />
        </g>
        <g transform="translate(145.2824,306.9709)" id="g48">
          <path id="path50" style="fill:#e1e1e1;fill-opacity:1;fill-rule:nonzero;stroke:none"
            d="m 0,0 c 0,0 -0.108,0.308 -0.292,0.891 -0.185,0.599 -0.452,1.457 -0.798,2.574 -0.696,2.268 -1.709,5.574 -3.004,9.799 -2.574,8.465 -6.268,20.612 -10.767,35.409 l 0.259,-0.14 C -34.553,42.516 -59.667,34.941 -86.882,26.732 l -0.006,-10e-4 0.175,0.324 c 5.218,-17.372 10.179,-33.888 14.641,-48.739 l -0.297,0.16 c 21.282,6.352 39.338,11.742 52.091,15.549 6.38,1.891 11.433,3.389 14.909,4.419 1.725,0.506 3.056,0.896 3.976,1.166 0.443,0.127 0.784,0.225 1.032,0.296 C -0.127,-0.029 0,0 0,0 c 0,0 -0.104,-0.041 -0.326,-0.113 -0.24,-0.075 -0.57,-0.179 -0.998,-0.315 -0.906,-0.279 -2.216,-0.683 -3.914,-1.207 -3.456,-1.056 -8.478,-2.59 -14.821,-4.526 -12.773,-3.873 -30.858,-9.357 -52.173,-15.82 l -0.228,-0.069 -0.069,0.229 c -4.474,14.846 -9.45,31.358 -14.683,48.726 l -0.075,0.249 0.249,0.075 0.006,0.002 c 27.226,8.171 52.351,15.711 72.31,21.702 l 0.2,0.06 0.06,-0.2 C -10.035,33.917 -6.4,21.707 -3.867,13.197 -2.622,8.978 -1.647,5.677 -0.979,3.412 -0.656,2.305 -0.409,1.455 -0.235,0.861 -0.071,0.288 0,0 0,0" />
        </g>
        <g transform="translate(130.6203,355.7038)" id="g52">
          <path id="path54" style="fill:#e1e1e1;fill-opacity:1;fill-rule:nonzero;stroke:none"
            d="m 0,0 c 0.007,-0.004 -0.026,-0.079 -0.101,-0.22 -0.09,-0.166 -0.201,-0.369 -0.338,-0.62 -0.328,-0.576 -0.777,-1.364 -1.345,-2.363 -1.211,-2.08 -2.927,-5.028 -5.045,-8.668 -4.33,-7.342 -10.296,-17.46 -16.944,-28.735 l -0.112,-0.19 -0.206,0.08 c -0.701,0.272 -1.455,0.564 -2.213,0.857 -12.701,4.955 -24.197,9.439 -32.565,12.703 -4.128,1.637 -7.481,2.967 -9.847,3.905 -1.128,0.459 -2.019,0.823 -2.667,1.086 -0.28,0.12 -0.506,0.217 -0.689,0.295 -0.155,0.07 -0.232,0.109 -0.229,0.117 0.004,0.009 0.088,-0.014 0.248,-0.067 0.188,-0.066 0.421,-0.147 0.707,-0.246 0.658,-0.243 1.56,-0.575 2.703,-0.996 2.38,-0.901 5.754,-2.178 9.907,-3.75 8.382,-3.228 19.897,-7.662 32.62,-12.561 0.758,-0.294 1.512,-0.586 2.213,-0.858 l -0.318,-0.11 c 6.703,11.243 12.718,21.332 17.082,28.653 2.177,3.605 3.941,6.526 5.185,8.586 0.603,0.978 1.08,1.75 1.428,2.314 0.154,0.24 0.279,0.435 0.381,0.595 C -0.056,-0.061 -0.007,0.004 0,0" />
        </g>
        <g transform="translate(440.9694,191.0515)" id="g56">
          <path id="path58" style="fill:#ececec;fill-opacity:1;fill-rule:nonzero;stroke:none"
            d="m 0,0 c 0,0 -4.685,4.643 -13.834,-6.952 -9.148,-11.595 -13.123,-18.54 -13.123,-18.54 0,0 -2.277,-2.359 -3.782,-0.221 -1.506,2.138 -3.051,7.658 -6.388,7.385 -3.46,-0.284 -5.267,-3.723 -5.712,-9.217 -0.446,-5.494 -1.864,-17.495 -1.996,-18.58 -0.13,-1.064 -1.039,-2.49 -2.298,-1.198 -1.259,1.291 -7.785,12.305 -12.826,8.895 -5.041,-3.41 -3.768,-18.92 -3.661,-20.618 0.107,-1.697 -0.346,-2.323 -1.192,-2.57 -0.845,-0.246 -2.69,3.662 -4.675,6.719 -1.985,3.056 -4.822,6.252 -7.565,4.042 -2.744,-2.212 -5.646,-13.081 1.268,-33.05 l 3.809,-9.044 9.759,-1.388 c 21.066,-1.697 30.862,3.832 32.317,7.042 1.454,3.209 -2.351,5.156 -5.807,6.314 -3.455,1.156 -7.701,1.964 -7.675,2.844 0.027,0.881 0.521,1.476 2.192,1.798 1.669,0.321 17.004,2.969 19.044,8.703 2.041,5.734 -10.256,9.297 -11.822,10.193 -1.565,0.895 -0.412,2.131 0.586,2.524 1.017,0.399 12.281,4.775 17.489,6.581 5.207,1.807 8.085,4.416 7.495,7.838 -0.571,3.299 -6.302,3.413 -8.749,4.336 -2.446,0.922 -0.733,3.717 -0.733,3.717 0,0 5.731,5.587 14.667,17.345 8.937,11.759 3.11,15.19 3.11,15.19" />
        </g>
        <g transform="translate(432.7574,180.6823)" id="g60">
          <path id="path62" style="fill:#e1e1e1;fill-opacity:1;fill-rule:nonzero;stroke:none"
            d="m 0,0 c 0.008,-0.006 -0.047,-0.092 -0.159,-0.254 -0.132,-0.184 -0.3,-0.42 -0.51,-0.714 -0.479,-0.649 -1.15,-1.557 -2.002,-2.712 -1.745,-2.351 -4.3,-5.73 -7.475,-9.892 -6.349,-8.324 -15.232,-19.738 -25.096,-32.299 -9.84,-12.567 -18.746,-23.941 -25.219,-32.208 -3.194,-4.111 -5.786,-7.448 -7.605,-9.789 -0.885,-1.13 -1.581,-2.018 -2.08,-2.653 -0.227,-0.281 -0.408,-0.505 -0.55,-0.682 -0.127,-0.151 -0.196,-0.227 -0.202,-0.222 -0.008,0.006 0.046,0.092 0.159,0.254 0.132,0.185 0.3,0.419 0.51,0.713 0.479,0.65 1.15,1.558 2.001,2.713 1.746,2.35 4.299,5.729 7.475,9.891 6.35,8.324 15.232,19.739 25.101,32.304 9.836,12.563 18.741,23.936 25.214,32.203 3.194,4.112 5.787,7.449 7.606,9.789 0.885,1.13 1.581,2.018 2.079,2.654 0.228,0.281 0.409,0.506 0.552,0.682 C -0.075,-0.07 -0.007,0.005 0,0" />
        </g>
        <g transform="translate(405.693,164.9128)" id="g64">
          <path id="path66" style="fill:#e1e1e1;fill-opacity:1;fill-rule:nonzero;stroke:none"
            d="m 0,0 c 0.069,0.006 0.221,-0.993 0.369,-2.619 0.15,-1.625 0.282,-3.875 0.372,-6.36 0.065,-2.391 0.124,-4.553 0.173,-6.363 0.036,-1.627 0.071,-2.633 -0.003,-2.64 -0.068,-0.007 -0.233,0.993 -0.365,2.621 -0.132,1.628 -0.236,3.879 -0.325,6.362 C 0.139,-6.61 0.064,-4.449 0.002,-2.642 -0.053,-1.015 -0.074,-0.006 0,0" />
        </g>
        <g transform="translate(407.4547,146.5837)" id="g68">
          <path id="path70" style="fill:#e1e1e1;fill-opacity:1;fill-rule:nonzero;stroke:none"
            d="M 0,0 C -0.013,0.144 4.61,0.646 10.324,1.122 16.04,1.6 20.682,1.869 20.693,1.727 20.705,1.583 16.083,1.08 10.367,0.604 4.654,0.127 0.012,-0.144 0,0" />
        </g>
        <g transform="translate(390.861,127.2966)" id="g72">
          <path id="path74" style="fill:#e1e1e1;fill-opacity:1;fill-rule:nonzero;stroke:none"
            d="m 0,0 c 0.018,0.072 1.031,-0.113 2.663,-0.427 1.633,-0.308 3.886,-0.74 6.386,-1.137 2.501,-0.405 4.775,-0.704 6.423,-0.917 1.647,-0.214 2.669,-0.354 2.663,-0.428 -0.006,-0.07 -1.038,-0.06 -2.7,0.061 -1.663,0.121 -3.956,0.364 -6.468,0.769 -2.514,0.4 -4.766,0.892 -6.383,1.293 C 0.967,-0.38 -0.017,-0.067 0,0" />
        </g>
        <g transform="translate(385.6188,143.5251)" id="g76">
          <path id="path78" style="fill:#e1e1e1;fill-opacity:1;fill-rule:nonzero;stroke:none"
            d="m 0,0 c 0.068,0.022 0.434,-0.857 0.969,-2.299 0.536,-1.441 1.242,-3.444 1.992,-5.667 0.749,-2.222 1.4,-4.244 1.847,-5.716 0.446,-1.471 0.688,-2.392 0.62,-2.416 -0.068,-0.022 -0.434,0.858 -0.969,2.299 -0.536,1.442 -1.242,3.445 -1.992,5.667 C 1.718,-5.909 1.066,-3.888 0.62,-2.417 0.174,-0.945 -0.068,-0.023 0,0" />
        </g>
        <g transform="translate(368.8063,128.3581)" id="g80">
          <path id="path82" style="fill:#e1e1e1;fill-opacity:1;fill-rule:nonzero;stroke:none"
            d="m 0,0 c 0.068,0.024 0.53,-1.105 1.222,-2.951 0.691,-1.845 1.613,-4.405 2.601,-7.244 0.988,-2.84 1.855,-5.421 2.457,-7.297 0.603,-1.876 0.942,-3.048 0.874,-3.071 -0.068,-0.024 -0.53,1.105 -1.221,2.95 -0.692,1.845 -1.614,4.406 -2.602,7.246 C 2.344,-7.528 1.477,-4.948 0.874,-3.071 0.271,-1.195 -0.068,-0.023 0,0" />
        </g>
        <g transform="translate(375.9274,108.3347)" id="g84">
          <path id="path86" style="fill:#e1e1e1;fill-opacity:1;fill-rule:nonzero;stroke:none"
            d="m 0,0 c 0.015,0.073 1.307,-0.122 3.39,-0.448 2.084,-0.323 4.961,-0.773 8.148,-1.193 3.189,-0.424 6.083,-0.745 8.18,-0.973 2.095,-0.229 3.393,-0.377 3.388,-0.451 -0.004,-0.069 -1.312,-0.051 -3.42,0.085 -2.109,0.133 -5.018,0.397 -8.216,0.823 C 8.272,-1.736 5.396,-1.228 3.325,-0.811 1.255,-0.392 -0.013,-0.067 0,0" />
        </g>
        <g transform="translate(451.1588,210.1081)" id="g88">
          <path id="path90" style="fill:#f5f5f5;fill-opacity:1;fill-rule:nonzero;stroke:none"
            d="m 0,0 -56.671,1.73 2.367,77.551 56.672,-1.73 z" />
        </g>
        <g transform="translate(440.7194,199.8063)" id="g92">
          <path id="path94" style="fill:#ffffff;fill-opacity:1;fill-rule:nonzero;stroke:none"
            d="m 0,0 -56.671,1.73 2.367,77.551 56.672,-1.73 z" />
        </g>
        <g transform="translate(440.7194,199.8063)" id="g96">
          <path id="path98" style="fill:#e1e1e1;fill-opacity:1;fill-rule:nonzero;stroke:none"
            d="m 0,0 c 0,0 -0.005,0.133 -0.002,0.381 0.005,0.263 0.012,0.625 0.02,1.097 0.023,0.978 0.057,2.396 0.101,4.237 0.099,3.709 0.242,9.103 0.423,15.93 0.389,13.648 0.939,33.005 1.591,55.913 l 0.228,-0.243 c -17.067,0.514 -36.339,1.094 -56.666,1.706 h -0.007 l 0.269,0.252 C -54.945,50.307 -55.781,23.488 -56.459,1.724 l -0.206,0.218 C -39.521,1.373 -25.382,0.903 -15.51,0.575 -10.576,0.401 -6.713,0.265 -4.062,0.171 -2.752,0.121 -1.746,0.082 -1.047,0.056 -0.363,0.026 0,0 0,0 c 0,0 -0.333,-0.005 -1.003,0.008 -0.69,0.015 -1.684,0.038 -2.977,0.066 -2.641,0.069 -6.489,0.167 -11.404,0.294 -9.904,0.277 -24.092,0.671 -41.294,1.151 l -0.212,0.005 0.006,0.213 c 0.652,21.765 1.453,48.584 2.321,77.552 l 0.007,0.26 0.26,-0.007 h 0.007 c 20.327,-0.63 39.599,-1.227 56.664,-1.755 L 2.611,77.779 2.604,77.543 C 1.854,54.576 1.222,35.167 0.775,21.483 0.54,14.682 0.355,9.307 0.228,5.611 0.16,3.792 0.107,2.39 0.071,1.422 0.052,0.962 0.036,0.608 0.025,0.353 0.013,0.114 0,0 0,0" />
        </g>
        <g transform="translate(420.9547,261.1379)" id="g100">
          <path id="path102" style="fill:#e1e1e1;fill-opacity:1;fill-rule:nonzero;stroke:none"
            d="m 0,0 c -0.004,-0.144 -6.173,-0.072 -13.777,0.16 -7.607,0.233 -13.768,0.537 -13.763,0.681 0.005,0.144 6.172,0.072 13.778,-0.16 C -6.157,0.449 0.005,0.144 0,0" />
        </g>
        <g transform="translate(435.6442,253.9445)" id="g104">
          <path id="path106" style="fill:#e1e1e1;fill-opacity:1;fill-rule:nonzero;stroke:none"
            d="m 0,0 c -0.005,-0.144 -9.509,0.03 -21.225,0.388 -11.72,0.358 -21.214,0.764 -21.211,0.908 0.005,0.143 9.507,-0.03 21.227,-0.388 C -9.492,0.55 0.004,0.144 0,0" />
        </g>
        <g transform="translate(435.4293,246.9147)" id="g108">
          <path id="path110" style="fill:#e1e1e1;fill-opacity:1;fill-rule:nonzero;stroke:none"
            d="m 0,0 c -0.005,-0.144 -9.508,0.029 -21.225,0.387 -11.72,0.358 -21.214,0.764 -21.21,0.908 0.004,0.144 9.506,-0.029 21.226,-0.387 C -9.492,0.55 0.004,0.144 0,0" />
        </g>
        <g transform="translate(435.2145,239.8845)" id="g112">
          <path id="path114" style="fill:#e1e1e1;fill-opacity:1;fill-rule:nonzero;stroke:none"
            d="m 0,0 c -0.004,-0.144 -9.508,0.029 -21.225,0.388 -11.719,0.357 -21.214,0.763 -21.21,0.908 0.004,0.143 9.506,-0.03 21.227,-0.388 C -9.492,0.55 0.005,0.144 0,0" />
        </g>
        <g transform="translate(434.9996,232.8542)" id="g116">
          <path id="path118" style="fill:#e1e1e1;fill-opacity:1;fill-rule:nonzero;stroke:none"
            d="m 0,0 c -0.004,-0.144 -9.508,0.03 -21.224,0.388 -11.72,0.357 -21.215,0.764 -21.211,0.908 0.004,0.143 9.506,-0.03 21.227,-0.388 C -9.492,0.551 0.005,0.144 0,0" />
        </g>
        <g transform="translate(434.7858,225.8239)" id="g120">
          <path id="path122" style="fill:#e1e1e1;fill-opacity:1;fill-rule:nonzero;stroke:none"
            d="m 0,0 c -0.005,-0.144 -9.509,0.03 -21.225,0.388 -11.72,0.357 -21.214,0.764 -21.211,0.908 0.005,0.143 9.506,-0.03 21.227,-0.388 C -9.493,0.551 0.004,0.144 0,0" />
        </g>
        <g transform="translate(434.5709,218.7936)" id="g124">
          <path id="path126" style="fill:#e1e1e1;fill-opacity:1;fill-rule:nonzero;stroke:none"
            d="m 0,0 c -0.005,-0.144 -9.509,0.03 -21.225,0.388 -11.72,0.358 -21.214,0.764 -21.211,0.908 0.005,0.143 9.507,-0.029 21.227,-0.388 C -9.492,0.551 0.004,0.144 0,0" />
        </g>
        <g transform="translate(414.7301,212.363)" id="g128">
          <path id="path130" style="fill:#e1e1e1;fill-opacity:1;fill-rule:nonzero;stroke:none"
            d="m 0,0 c -0.004,-0.144 -5.114,-0.104 -11.412,0.088 -6.3,0.192 -11.401,0.465 -11.397,0.608 0.004,0.144 5.113,0.105 11.413,-0.088 C -5.099,0.416 0.005,0.144 0,0" />
        </g>
      </g>
    </g>

    <g id="g172">
      <g clip-path="url(#clipPath178)" id="g174">
        <g transform="translate(463.3014,88.9811)" id="g180">
          <path id="path182" style="fill:#1a2e35;fill-opacity:1;fill-rule:nonzero;stroke:none"
            d="m 0,0 c 0,-0.152 -95.646,-0.276 -213.606,-0.276 -118,0 -213.626,0.124 -213.626,0.276 0,0.153 95.626,0.276 213.626,0.276 C -95.646,0.276 0,0.153 0,0" />
        </g>
      </g>
    </g>
    <g id="g184">
      <g clip-path="url(#clipPath190)" id="g186">
        <g transform="translate(141.8136,152.5143)" id="g192">
          <path id="path194" style="fill:#0178BC;fill-opacity:1;fill-rule:nonzero;stroke:none"
            d="m 0,0 -30.196,30.325 15.182,27.885 c 15.181,19.433 47.316,18.181 47.316,18.181 0,0 21.869,2.106 47.395,-2.861 25.525,-4.967 23.47,-21.86 23.47,-21.86 l 3.419,-62.572 3.665,-50.95 L 16.104,-63.75 0,0" />
        </g>
        <g transform="translate(192.5294,91.6979)" id="g196">
          <path id="path198" style="fill:#0178BC;fill-opacity:1;fill-rule:nonzero;stroke:none"
            d="m 0,0 -84.326,-1.033 c -20.263,-0.248 -33.781,20.818 -25.112,39.137 l 36.055,66.867 32.842,-22.202 -22.402,-46.495 68.265,-1.217 z" />
        </g>
        <g transform="translate(241.9655,214.3415)" id="g200">
          <path id="path202" style="fill:#0178BC;fill-opacity:1;fill-rule:nonzero;stroke:none"
            d="m 0,0 67.671,-104.479 -39.48,-2.582 c 0,0 -23.576,37.154 -23.043,36.385 C 6.112,-72.066 0,0 0,0" />
        </g>
        <g transform="translate(150.2955,168.4645)" id="g204">
          <path id="path206" style="fill:#1a2e35;fill-opacity:1;fill-rule:nonzero;stroke:none"
            d="M 0,0 C -0.017,0.005 0.016,0.189 0.094,0.537 0.19,0.939 0.308,1.44 0.453,2.051 0.766,3.364 1.22,5.265 1.697,7.629 c 0.474,2.364 0.979,5.194 1.324,8.359 0.319,3.161 0.52,6.68 0.037,10.304 -0.539,3.612 -1.896,6.886 -3.494,9.618 -1.596,2.744 -3.394,4.994 -5.023,6.762 -1.631,1.768 -3.071,3.09 -4.097,3.963 -1.023,0.878 -1.608,1.344 -1.581,1.38 0.011,0.013 0.168,-0.087 0.46,-0.292 0.286,-0.211 0.727,-0.501 1.25,-0.932 1.071,-0.829 2.557,-2.117 4.237,-3.868 1.678,-1.75 3.525,-4 5.168,-6.771 C 1.622,33.396 3.022,30.064 3.573,26.365 4.066,22.667 3.845,19.117 3.499,15.936 3.124,12.751 2.579,9.916 2.057,7.553 1.532,5.19 1.022,3.299 0.649,1.999 0.462,1.349 0.308,0.847 0.195,0.509 0.084,0.17 0.018,-0.005 0,0" />
        </g>
        <g transform="translate(147.5836,164.861)" id="g208">
          <path id="path210" style="fill:#1a2e35;fill-opacity:1;fill-rule:nonzero;stroke:none"
            d="m 0,0 c 0.033,-0.016 -0.176,-0.553 -0.581,-1.512 -0.403,-0.959 -1.009,-2.338 -1.773,-4.034 -1.528,-3.393 -3.703,-8.053 -6.204,-13.15 -2.503,-5.099 -4.857,-9.671 -6.607,-12.955 -0.874,-1.643 -1.594,-2.965 -2.106,-3.871 -0.511,-0.908 -0.808,-1.401 -0.84,-1.384 -0.032,0.016 0.205,0.542 0.661,1.477 0.503,1.014 1.162,2.343 1.958,3.947 1.694,3.409 3.961,7.971 6.467,13.015 2.455,5.067 4.677,9.651 6.337,13.076 0.782,1.611 1.429,2.946 1.923,3.964 C -0.303,-0.494 -0.033,0.015 0,0" />
        </g>
        <g transform="translate(192.5294,91.6979)" id="g212">
          <path id="path214" style="fill:#1a2e35;fill-opacity:1;fill-rule:nonzero;stroke:none"
            d="m 0,0 c -0.007,0.001 -0.006,0.061 0.001,0.176 0.011,0.139 0.025,0.306 0.041,0.513 0.049,0.486 0.116,1.149 0.201,1.994 0.195,1.776 0.474,4.312 0.825,7.502 0.746,6.463 1.799,15.571 3.037,26.299 l 0.237,-0.266 c -7.586,-0.007 -16.028,-0.015 -24.909,-0.023 -17.006,0.031 -32.398,0.057 -43.58,0.076 -5.55,0.036 -10.052,0.064 -13.206,0.083 -1.532,0.022 -2.735,0.038 -3.591,0.049 -0.387,0.011 -0.695,0.02 -0.933,0.027 -0.211,0.008 -0.318,0.017 -0.318,0.026 0,0.009 0.107,0.018 0.318,0.026 0.238,0.007 0.546,0.016 0.933,0.027 0.856,0.012 2.059,0.028 3.591,0.049 3.154,0.019 7.656,0.047 13.206,0.083 11.182,0.019 26.574,0.046 43.58,0.076 8.881,-0.008 17.323,-0.016 24.909,-0.023 H 4.611 L 4.579,36.428 C 3.263,25.708 2.146,16.609 1.354,10.151 0.946,6.968 0.621,4.437 0.394,2.665 0.278,1.823 0.187,1.163 0.12,0.681 0.088,0.475 0.062,0.309 0.04,0.171 0.02,0.058 0.006,0 0,0" />
        </g>
        <g transform="translate(130.1808,127.2595)" id="g216">
          <path id="path218" style="fill:#1a2e35;fill-opacity:1;fill-rule:nonzero;stroke:none"
            d="m 0,0 c -0.071,-0.045 -0.646,0.813 -1.683,2.107 -1.034,1.294 -2.572,2.997 -4.499,4.629 -1.932,1.627 -3.868,2.859 -5.318,3.661 -1.449,0.806 -2.391,1.229 -2.359,1.307 0.022,0.056 1.017,-0.248 2.53,-0.979 C -9.818,9.995 -7.812,8.79 -5.846,7.134 -3.885,5.474 -2.361,3.697 -1.39,2.33 -0.415,0.962 0.051,0.03 0,0" />
        </g>
        <g transform="translate(249.798,120.6432)" id="g220">
          <path id="path222" style="fill:#1a2e35;fill-opacity:1;fill-rule:nonzero;stroke:none"
            d="m 0,0 c -0.018,-0.002 -0.063,0.296 -0.133,0.864 -0.07,0.615 -0.164,1.444 -0.283,2.489 -0.23,2.162 -0.54,5.293 -0.875,9.168 -0.683,7.747 -1.472,18.461 -2.175,30.305 -0.701,11.849 -1.191,22.581 -1.472,30.353 -0.145,3.885 -0.236,7.03 -0.285,9.204 -0.017,1.051 -0.031,1.886 -0.041,2.504 -0.004,0.572 0.003,0.873 0.021,0.874 0.017,0.001 0.046,-0.299 0.084,-0.87 0.034,-0.618 0.08,-1.452 0.139,-2.5 0.109,-2.221 0.262,-5.351 0.45,-9.197 0.376,-7.765 0.923,-18.492 1.624,-30.337 0.702,-11.84 1.433,-22.554 2.023,-30.306 0.297,-3.839 0.538,-6.963 0.71,-9.18 C -0.136,2.323 -0.075,1.49 -0.029,0.874 0.008,0.303 0.018,0.002 0,0" />
        </g>
        <g transform="translate(174.5246,177.4919)" id="g224">
          <path id="path226" style="fill:#e1e1e1;fill-opacity:1;fill-rule:nonzero;stroke:none"
            d="M 0,0 C -0.029,0.005 0.01,0.484 0.107,1.366 0.223,2.32 0.376,3.589 0.565,5.149 1.004,8.45 1.605,12.973 2.301,18.208 L 2.688,17.97 c -2.015,-1.41 -4.2,-2.942 -6.469,-4.53 -2.31,-1.607 -4.534,-3.154 -6.583,-4.578 l -0.474,-0.33 0.087,0.569 c 0.794,5.191 1.48,9.671 1.98,12.943 0.254,1.539 0.461,2.791 0.617,3.732 0.153,0.869 0.249,1.336 0.278,1.332 0.028,-0.004 -0.013,-0.48 -0.114,-1.355 -0.12,-0.947 -0.279,-2.206 -0.474,-3.754 -0.454,-3.277 -1.076,-7.768 -1.796,-12.97 l -0.387,0.24 c 2.043,1.43 4.262,2.984 6.567,4.598 2.274,1.582 4.465,3.106 6.485,4.51 L 2.876,18.705 2.792,18.139 C 2.022,12.914 1.357,8.401 0.872,5.106 0.625,3.555 0.423,2.292 0.272,1.344 0.123,0.469 0.029,-0.004 0,0" />
        </g>
        <g transform="translate(212.1569,173.4352)" id="g228">
          <path id="path230" style="fill:#e1e1e1;fill-opacity:1;fill-rule:nonzero;stroke:none"
            d="m 0,0 c -0.021,-0.02 -0.365,0.317 -0.982,0.956 -0.66,0.698 -1.538,1.628 -2.616,2.77 -2.259,2.448 -5.352,5.8 -8.934,9.682 l 0.431,0.147 c -0.203,-2.452 -0.423,-5.112 -0.651,-7.872 -0.242,-2.804 -0.474,-5.503 -0.687,-7.989 l -0.05,-0.575 -0.382,0.431 c -3.484,3.929 -6.492,7.32 -8.687,9.796 -1.022,1.179 -1.852,2.138 -2.477,2.86 -0.569,0.672 -0.868,1.045 -0.846,1.065 0.021,0.019 0.361,-0.317 0.969,-0.955 0.652,-0.697 1.518,-1.624 2.584,-2.763 2.23,-2.445 5.286,-5.792 8.826,-9.672 l -0.431,-0.145 c 0.206,2.487 0.429,5.187 0.662,7.991 0.237,2.759 0.465,5.419 0.676,7.869 l 0.049,0.572 0.381,-0.426 C -8.638,9.811 -5.592,6.414 -3.369,3.935 -2.333,2.753 -1.492,1.791 -0.859,1.068 -0.281,0.395 0.021,0.02 0,0" />
        </g>
        <g transform="translate(231.1017,174.7751)" id="g232">
          <path id="path234" style="fill:#e1e1e1;fill-opacity:1;fill-rule:nonzero;stroke:none"
            d="m 0,0 c 0.024,-0.016 -0.215,-0.433 -0.679,-1.19 -0.511,-0.814 -1.19,-1.897 -2.025,-3.227 -1.803,-2.801 -4.274,-6.636 -7.133,-11.076 l -0.249,0.381 c 2.423,0.418 5.053,0.871 7.783,1.342 2.774,0.47 5.446,0.922 7.905,1.338 l 0.57,0.097 -0.321,-0.478 c -2.93,-4.358 -5.459,-8.12 -7.305,-10.866 -0.885,-1.285 -1.606,-2.329 -2.148,-3.115 -0.507,-0.72 -0.794,-1.102 -0.818,-1.087 -0.024,0.017 0.216,0.43 0.68,1.179 0.512,0.806 1.192,1.877 2.029,3.194 1.806,2.772 4.281,6.57 7.148,10.969 l 0.249,-0.381 c -2.458,-0.424 -5.128,-0.885 -7.901,-1.363 -2.731,-0.463 -5.363,-0.908 -7.788,-1.319 l -0.566,-0.096 0.317,0.476 c 2.921,4.4 5.445,8.201 7.288,10.975 0.885,1.298 1.605,2.354 2.146,3.148 C -0.311,-0.371 -0.024,0.017 0,0" />
        </g>
        <g transform="translate(205.9137,155.3981)" id="g236">
          <path id="path238" style="fill:#e1e1e1;fill-opacity:1;fill-rule:nonzero;stroke:none"
            d="m 0,0 c 0.024,-0.016 -0.215,-0.433 -0.679,-1.19 -0.511,-0.814 -1.19,-1.896 -2.025,-3.227 -1.803,-2.801 -4.274,-6.636 -7.133,-11.076 l -0.249,0.381 c 2.423,0.418 5.053,0.871 7.783,1.342 2.774,0.47 5.445,0.922 7.905,1.338 l 0.569,0.097 -0.32,-0.478 c -2.93,-4.358 -5.459,-8.12 -7.305,-10.866 -0.885,-1.285 -1.606,-2.329 -2.148,-3.115 -0.507,-0.72 -0.794,-1.102 -0.818,-1.086 -0.024,0.016 0.215,0.429 0.68,1.178 0.511,0.806 1.192,1.877 2.028,3.194 1.807,2.772 4.282,6.57 7.149,10.969 l 0.249,-0.381 c -2.459,-0.424 -5.128,-0.885 -7.902,-1.363 -2.731,-0.463 -5.362,-0.908 -7.787,-1.319 l -0.566,-0.096 0.317,0.476 c 2.921,4.4 5.445,8.201 7.288,10.975 0.885,1.298 1.605,2.354 2.146,3.148 C -0.311,-0.37 -0.024,0.017 0,0" />
        </g>
        <g transform="translate(260.3346,175.0495)" id="g240">
          <path id="path242" style="fill:#e1e1e1;fill-opacity:1;fill-rule:nonzero;stroke:none"
            d="m 0,0 c 0.024,-0.016 -0.215,-0.434 -0.679,-1.19 -0.51,-0.814 -1.189,-1.897 -2.024,-3.228 -1.804,-2.8 -4.274,-6.635 -7.133,-11.075 l -0.25,0.38 c 2.424,0.419 5.054,0.872 7.783,1.342 2.775,0.47 5.446,0.923 7.906,1.339 l 0.569,0.097 -0.32,-0.478 c -2.931,-4.359 -5.459,-8.121 -7.305,-10.867 -0.886,-1.284 -1.607,-2.329 -2.148,-3.114 -0.508,-0.721 -0.794,-1.102 -0.819,-1.087 -0.023,0.017 0.216,0.43 0.681,1.179 0.511,0.805 1.191,1.876 2.028,3.193 1.807,2.773 4.281,6.57 7.148,10.97 l 0.25,-0.381 c -2.459,-0.425 -5.129,-0.885 -7.902,-1.363 -2.731,-0.463 -5.362,-0.908 -7.787,-1.32 l -0.566,-0.095 0.316,0.476 c 2.922,4.4 5.446,8.2 7.289,10.974 0.885,1.299 1.605,2.354 2.145,3.148 C -0.311,-0.371 -0.023,0.016 0,0" />
        </g>
        <g transform="translate(132.8864,191.0563)" id="g244">
          <path id="path246" style="fill:#e1e1e1;fill-opacity:1;fill-rule:nonzero;stroke:none"
            d="m 0,0 c 0.024,-0.016 -0.215,-0.433 -0.679,-1.19 -0.51,-0.814 -1.19,-1.897 -2.025,-3.227 -1.803,-2.801 -4.273,-6.636 -7.133,-11.076 l -0.249,0.381 c 2.424,0.418 5.053,0.871 7.783,1.342 2.775,0.47 5.446,0.922 7.906,1.338 l 0.569,0.097 -0.321,-0.478 c -2.93,-4.358 -5.458,-8.12 -7.305,-10.866 -0.885,-1.285 -1.606,-2.329 -2.147,-3.115 -0.508,-0.72 -0.795,-1.102 -0.819,-1.086 -0.024,0.016 0.216,0.429 0.681,1.178 0.511,0.806 1.191,1.877 2.028,3.194 1.806,2.772 4.281,6.57 7.148,10.969 l 0.249,-0.381 c -2.458,-0.424 -5.128,-0.885 -7.901,-1.363 -2.731,-0.463 -5.362,-0.908 -7.787,-1.319 l -0.567,-0.096 0.317,0.476 c 2.922,4.4 5.446,8.201 7.289,10.975 0.884,1.298 1.604,2.354 2.145,3.148 C -0.311,-0.37 -0.024,0.017 0,0" />
        </g>
        <g transform="translate(93.3522,116.2839)" id="g248">
          <path id="path250" style="fill:#e1e1e1;fill-opacity:1;fill-rule:nonzero;stroke:none"
            d="m 0,0 c 0.023,0.019 0.345,-0.339 0.92,-1.016 0.616,-0.738 1.434,-1.719 2.439,-2.926 2.101,-2.585 4.979,-6.124 8.311,-10.222 l -0.439,-0.119 c 0.355,2.433 0.742,5.074 1.142,7.815 0.416,2.783 0.816,5.462 1.184,7.93 l 0.086,0.571 0.354,-0.454 c 3.232,-4.139 6.022,-7.711 8.059,-10.319 0.945,-1.24 1.715,-2.25 2.293,-3.009 0.526,-0.707 0.801,-1.098 0.778,-1.116 -0.023,-0.018 -0.34,0.339 -0.908,1.012 -0.607,0.738 -1.414,1.716 -2.406,2.921 -2.073,2.578 -4.914,6.111 -8.205,10.203 l 0.44,0.119 c -0.361,-2.469 -0.753,-5.15 -1.16,-7.934 -0.409,-2.74 -0.803,-5.379 -1.166,-7.811 l -0.085,-0.569 -0.354,0.449 C 8.009,-10.33 5.181,-6.751 3.117,-4.137 2.158,-2.893 1.377,-1.88 0.791,-1.119 0.256,-0.411 -0.022,-0.019 0,0" />
        </g>
        <g transform="translate(183.6456,164.6979)" id="g252">
          <path id="path254" style="fill:#e1e1e1;fill-opacity:1;fill-rule:nonzero;stroke:none"
            d="M 0,0 C 0.002,-0.029 -0.476,-0.089 -1.359,-0.175 -2.316,-0.258 -3.59,-0.368 -5.155,-0.503 -8.477,-0.751 -13.026,-1.09 -18.292,-1.482 l 0.153,0.427 c 1.794,-1.682 3.74,-3.507 5.761,-5.403 2.046,-1.932 4.016,-3.791 5.831,-5.503 l 0.42,-0.396 -0.575,-0.032 c -5.244,-0.288 -9.77,-0.536 -13.074,-0.716 -1.558,-0.068 -2.826,-0.122 -3.78,-0.163 -0.881,-0.029 -1.359,-0.03 -1.36,-0.002 -0.002,0.03 0.472,0.087 1.35,0.167 0.951,0.078 2.216,0.18 3.771,0.306 3.301,0.229 7.823,0.541 13.062,0.902 l -0.154,-0.427 c -1.82,1.707 -3.796,3.56 -5.848,5.485 -2.015,1.901 -3.955,3.733 -5.744,5.421 l -0.418,0.394 0.571,0.035 c 5.272,0.318 9.826,0.592 13.15,0.794 1.569,0.076 2.846,0.137 3.805,0.184 C -0.483,0.024 -0.002,0.029 0,0" />
        </g>
        <g transform="translate(161.4865,114.2956)" id="g256">
          <path id="path258" style="fill:#e1e1e1;fill-opacity:1;fill-rule:nonzero;stroke:none"
            d="m 0,0 c 0.022,0.019 0.352,-0.332 0.94,-0.997 0.629,-0.726 1.467,-1.691 2.496,-2.879 2.151,-2.543 5.098,-6.025 8.509,-10.057 l -0.437,-0.128 c 0.308,2.441 0.642,5.088 0.99,7.836 0.36,2.791 0.708,5.478 1.028,7.953 L 13.6,2.3 13.963,1.854 c 3.313,-4.076 6.172,-7.592 8.26,-10.16 0.969,-1.222 1.758,-2.216 2.351,-2.964 0.541,-0.696 0.823,-1.082 0.801,-1.1 -0.023,-0.019 -0.348,0.331 -0.929,0.995 -0.621,0.724 -1.446,1.687 -2.462,2.872 -2.124,2.537 -5.032,6.014 -8.403,10.041 l 0.437,0.126 C 13.706,-0.811 13.366,-3.498 13.014,-6.29 12.659,-9.037 12.316,-11.684 12,-14.123 l -0.073,-0.569 -0.363,0.441 C 8.21,-10.171 5.312,-6.647 3.197,-4.075 2.214,-2.85 1.414,-1.853 0.812,-1.104 0.264,-0.405 -0.022,-0.019 0,0" />
        </g>
        <g transform="translate(121.8839,151.2604)" id="g260">
          <path id="path262" style="fill:#e1e1e1;fill-opacity:1;fill-rule:nonzero;stroke:none"
            d="m 0,0 c 0.002,-0.029 -0.476,-0.09 -1.359,-0.176 -0.957,-0.082 -2.23,-0.192 -3.796,-0.328 -3.321,-0.247 -7.87,-0.587 -13.137,-0.979 l 0.153,0.428 c 1.794,-1.682 3.741,-3.508 5.761,-5.403 2.046,-1.932 4.017,-3.791 5.831,-5.503 l 0.42,-0.396 -0.575,-0.033 c -5.243,-0.287 -9.769,-0.535 -13.073,-0.716 -1.559,-0.067 -2.827,-0.122 -3.78,-0.163 -0.881,-0.028 -1.359,-0.03 -1.361,-10e-4 -0.001,0.03 0.473,0.086 1.351,0.167 0.951,0.078 2.215,0.18 3.771,0.306 3.3,0.228 7.822,0.54 13.062,0.902 l -0.155,-0.427 c -1.82,1.706 -3.796,3.559 -5.848,5.484 -2.015,1.901 -3.955,3.734 -5.744,5.422 l -0.417,0.394 0.57,0.034 c 5.272,0.318 9.826,0.593 13.15,0.794 1.57,0.076 2.846,0.138 3.806,0.184 C -0.483,0.024 -0.002,0.028 0,0" />
        </g>
        <g transform="translate(155.9074,115.4313)" id="g264">
          <path id="path266" style="fill:#e1e1e1;fill-opacity:1;fill-rule:nonzero;stroke:none"
            d="m 0,0 c 0.002,-0.029 -0.476,-0.089 -1.359,-0.175 -0.957,-0.083 -2.23,-0.193 -3.796,-0.328 -3.322,-0.248 -7.871,-0.587 -13.137,-0.979 l 0.153,0.427 c 1.794,-1.682 3.741,-3.507 5.761,-5.403 2.046,-1.932 4.017,-3.791 5.831,-5.503 l 0.42,-0.396 -0.575,-0.032 c -5.244,-0.288 -9.77,-0.536 -13.073,-0.716 -1.559,-0.068 -2.827,-0.122 -3.78,-0.163 -0.882,-0.029 -1.359,-0.03 -1.361,-0.002 -0.001,0.03 0.473,0.087 1.351,0.167 0.95,0.078 2.215,0.18 3.771,0.306 3.3,0.229 7.822,0.541 13.062,0.902 l -0.155,-0.427 c -1.82,1.707 -3.796,3.56 -5.848,5.485 -2.015,1.901 -3.955,3.733 -5.744,5.421 l -0.418,0.395 0.571,0.034 c 5.272,0.318 9.826,0.592 13.15,0.794 1.57,0.076 2.846,0.137 3.805,0.184 C -0.483,0.024 -0.002,0.029 0,0" />
        </g>
        <g transform="translate(232.7179,206.5886)" id="g268">
          <path id="path270" style="fill:#e1e1e1;fill-opacity:1;fill-rule:nonzero;stroke:none"
            d="M 0,0 C 0.002,-0.029 -0.476,-0.089 -1.359,-0.175 -2.316,-0.258 -3.59,-0.368 -5.155,-0.503 -8.477,-0.751 -13.026,-1.09 -18.292,-1.482 l 0.153,0.427 c 1.794,-1.682 3.74,-3.507 5.761,-5.403 2.046,-1.931 4.016,-3.791 5.831,-5.503 l 0.42,-0.396 -0.575,-0.032 c -5.244,-0.288 -9.77,-0.536 -13.073,-0.716 -1.559,-0.068 -2.828,-0.122 -3.781,-0.163 -0.881,-0.028 -1.359,-0.03 -1.36,-0.002 -0.002,0.03 0.472,0.087 1.35,0.167 0.951,0.078 2.216,0.18 3.771,0.306 3.301,0.229 7.823,0.541 13.062,0.902 l -0.154,-0.427 c -1.82,1.707 -3.796,3.56 -5.848,5.485 -2.015,1.901 -3.955,3.733 -5.744,5.421 l -0.418,0.395 0.571,0.034 c 5.272,0.318 9.826,0.592 13.15,0.794 1.569,0.076 2.846,0.137 3.805,0.184 C -0.483,0.024 -0.002,0.029 0,0" />
        </g>
        <g transform="translate(195.3561,115.4313)" id="g272">
          <path id="path274" style="fill:#ffbf9d;fill-opacity:1;fill-rule:nonzero;stroke:none"
            d="m 0,0 c 0,0 16.826,4.847 22.394,6.267 2.169,0.553 11.463,-4.349 17.882,-8.425 0,0 8.84,-5.241 8.124,-6.856 -0.786,-1.777 -4.047,-1.413 -9.244,1.032 0,0 1.813,-5.268 -1.747,-5.154 0,0 1.766,-5.692 -1.571,-6.281 -3.336,-0.589 -4.121,6.674 -7.066,7.066 -2.944,0.393 -9.028,0.786 -9.028,0.786 0,0 -5.068,-8.392 -8.993,-8.981 -3.926,-0.589 -13.022,0.472 -13.022,0.472 z" />
        </g>
        <g transform="translate(224.0729,114.2712)" id="g276">
          <path id="path278" style="fill:#ff9a6c;fill-opacity:1;fill-rule:nonzero;stroke:none"
            d="M 0,0 C 0.077,0.121 2.181,-1.068 4.699,-2.656 7.218,-4.245 9.198,-5.631 9.121,-5.753 9.044,-5.874 6.941,-4.686 4.421,-3.097 1.903,-1.509 -0.077,-0.122 0,0" />
        </g>
        <g transform="translate(223.0778,111.0349)" id="g280">
          <path id="path282" style="fill:#ff9a6c;fill-opacity:1;fill-rule:nonzero;stroke:none"
            d="M 0,0 C 0.06,0.131 2.558,-0.894 5.579,-2.288 8.6,-3.683 11,-4.918 10.94,-5.049 10.879,-5.18 8.382,-4.155 5.36,-2.761 2.34,-1.366 -0.061,-0.13 0,0" />
        </g>
        <g transform="translate(224.8786,103.1901)" id="g284">
          <path id="path286" style="fill:#ff9a6c;fill-opacity:1;fill-rule:nonzero;stroke:none"
            d="M 0,0 C 0.02,0.143 1.72,0.027 3.798,-0.258 5.876,-0.542 7.544,-0.889 7.524,-1.031 7.505,-1.174 5.805,-1.059 3.727,-0.773 1.649,-0.488 -0.02,-0.143 0,0" />
        </g>
        <g transform="translate(173.4704,288.9841)" id="g288">
          <path id="path290" style="fill:#1a2e35;fill-opacity:1;fill-rule:nonzero;stroke:none"
            d="m 0,0 c 0.391,-1.288 -0.055,-2.788 -1.085,-3.653 -1.031,-0.865 -2.586,-1.044 -3.786,-0.436 -2.28,1.155 -2.568,4.301 -2.12,6.818 0.448,2.516 1.304,5.202 0.248,7.53 -0.807,1.781 -2.556,2.909 -3.92,4.311 -2.376,2.442 -3.642,6 -3.064,9.358 0.578,3.358 3.096,6.376 6.377,7.294 3.35,0.936 7.477,-0.093 9.971,2.332 1.807,1.757 1.918,4.636 3.316,6.734 2.171,3.256 6.761,3.773 10.638,3.243 3.878,-0.53 7.825,-1.774 11.623,-0.829 3.172,0.789 5.775,3.005 8.747,4.364 6.444,2.947 14.679,1.351 19.554,-3.79 4.876,-5.141 6.034,-13.449 2.751,-19.727 -1.18,-2.255 -2.956,-4.304 -5.315,-5.258" />
        </g>
        <g transform="translate(192.7663,206.3854)" id="g292">
          <path id="path294" style="fill:#ffbf9d;fill-opacity:1;fill-rule:nonzero;stroke:none"
            d="m 0,0 v 0 c 10.743,0.011 19.404,8.802 19.256,19.544 l -0.254,18.385 c 0,0 15.444,1.547 16.467,16.847 1.023,15.301 0.284,50.604 0.284,50.604 -17.309,8.582 -37.907,7.126 -53.836,-3.808 l -2.364,-1.624 1.151,-80.944 C -19.146,8.457 -10.548,-0.012 0,0" />
        </g>
        <g transform="translate(224.4616,284.051)" id="g296">
          <path id="path298" style="fill:#1a2e35;fill-opacity:1;fill-rule:nonzero;stroke:none"
            d="M 0,0 C -2.718,0.537 -2.698,4.047 0.026,4.554 0.146,4.576 0.279,4.575 0.398,4.552 3.116,4.015 3.096,0.503 0.373,-0.002 0.253,-0.024 0.12,-0.023 0,0" />
        </g>
        <g transform="translate(227.4645,288.9362)" id="g300">
          <path id="path302" style="fill:#1a2e35;fill-opacity:1;fill-rule:nonzero;stroke:none"
            d="M 0,0 C -0.254,-0.252 -1.695,0.987 -3.802,1.112 -5.909,1.268 -7.5,0.231 -7.719,0.514 c -0.108,0.127 0.157,0.592 0.853,1.064 0.683,0.468 1.835,0.894 3.148,0.806 C -2.404,2.297 -1.319,1.723 -0.705,1.167 -0.078,0.607 0.123,0.111 0,0" />
        </g>
        <g transform="translate(203.069,288.4211)" id="g304">
          <path id="path306" style="fill:#1a2e35;fill-opacity:1;fill-rule:nonzero;stroke:none"
            d="m 0,0 c 1.011,-0.7 1.263,-2.087 0.562,-3.098 -0.7,-1.011 -2.087,-1.263 -3.098,-0.563 -1.011,0.701 -1.263,2.088 -0.563,3.099 C -2.398,0.449 -1.011,0.701 0,0" />
        </g>
        <g transform="translate(204.4581,288.3268)" id="g308">
          <path id="path310" style="fill:#1a2e35;fill-opacity:1;fill-rule:nonzero;stroke:none"
            d="M 0,0 C -0.254,-0.252 -1.695,0.987 -3.802,1.112 -5.909,1.268 -7.5,0.231 -7.719,0.515 c -0.108,0.126 0.157,0.591 0.853,1.063 0.683,0.468 1.835,0.894 3.149,0.806 C -2.404,2.297 -1.319,1.723 -0.705,1.167 -0.078,0.607 0.123,0.111 0,0" />
        </g>
        <g transform="translate(211.9664,270.4689)" id="g312">
          <path id="path314" style="fill:#1a2e35;fill-opacity:1;fill-rule:nonzero;stroke:none"
            d="M 0,0 C -0.005,0.166 1.313,0.359 3.449,0.537 4.005,0.567 4.444,0.668 4.5,0.962 4.618,1.291 4.436,1.892 4.191,2.563 3.725,3.988 3.252,5.429 2.757,6.939 0.786,13.17 -0.555,18.3 -0.239,18.4 0.077,18.5 1.931,13.532 3.903,7.302 4.366,5.782 4.809,4.331 5.247,2.897 5.415,2.249 5.757,1.483 5.423,0.588 5.246,0.141 4.794,-0.165 4.425,-0.241 4.054,-0.331 3.742,-0.314 3.477,-0.312 1.334,-0.273 0.005,-0.166 0,0" />
        </g>
        <g transform="translate(204.9884,268.5129)" id="g316">
          <path id="path318" style="fill:#ffffff;fill-opacity:1;fill-rule:nonzero;stroke:none"
            d="m 0,0 c 2.702,-1.25 5.925,-2.809 10.178,-3.568 0,0 -2.677,-3.802 -7.003,-1.945 C -1.316,-3.586 0,0 0,0" />
        </g>
        <g transform="translate(211.8053,244.5339)" id="g320">
          <path id="path322" style="fill:#ff9a6c;fill-opacity:1;fill-rule:nonzero;stroke:none"
            d="m 0,0 c 0,0 -9.719,-0.261 -19.652,6.76 0,0 4.118,-11.277 19.471,-10.73 z" />
        </g>
        <g transform="translate(228.6251,307.8957)" id="g324">
          <path id="path326" style="fill:#1a2e35;fill-opacity:1;fill-rule:nonzero;stroke:none"
            d="m 0,0 c 0,0 -9.241,-4.697 -21.499,1.126 -8.043,3.822 -17.368,5.583 -19.383,3.942 -2.016,-1.641 -2.289,-9.859 -10.135,-12.408 0,0 0.847,-15.652 -5.408,-15.215 -6.256,0.437 -2.825,24.771 -2.825,24.771 l 15.132,7.757 16.609,3.474 15.751,-1.909 L 0.46,8.446 Z" />
        </g>
        <g transform="translate(173.3424,290.3718)" id="g328">
          <path id="path330" style="fill:#ffbf9d;fill-opacity:1;fill-rule:nonzero;stroke:none"
            d="m 0,0 c -0.255,0.127 -10.351,3.685 -10.587,-6.801 -0.236,-10.486 10.34,-8.56 10.365,-8.26 C -0.197,-14.76 0,0 0,0" />
        </g>
        <g transform="translate(170.007,279.3561)" id="g332">
          <path id="path334" style="fill:#ff9a6c;fill-opacity:1;fill-rule:nonzero;stroke:none"
            d="m 0,0 c -0.045,0.035 -0.186,-0.124 -0.498,-0.259 -0.304,-0.13 -0.823,-0.214 -1.365,0.003 -1.099,0.431 -1.992,2.211 -2,4.102 -0.006,0.955 0.215,1.86 0.57,2.604 0.337,0.76 0.845,1.285 1.405,1.372 0.558,0.115 0.945,-0.227 1.067,-0.526 0.134,-0.296 0.063,-0.504 0.117,-0.523 0.029,-0.027 0.229,0.17 0.155,0.606 -0.039,0.209 -0.156,0.459 -0.398,0.666 -0.247,0.21 -0.615,0.323 -1.004,0.289 -0.81,-0.037 -1.554,-0.765 -1.945,-1.582 -0.435,-0.82 -0.705,-1.836 -0.699,-2.909 0.02,-2.114 1.057,-4.115 2.563,-4.588 0.733,-0.209 1.354,-0.001 1.677,0.24 C -0.024,-0.253 0.036,-0.02 0,0" />
        </g>
        <g transform="translate(168.0036,323.1999)" id="g336">
          <path id="path338" style="fill:#1a2e35;fill-opacity:1;fill-rule:nonzero;stroke:none"
            d="M 0,0 C -0.058,0.122 1.664,0.614 3.637,-0.135 5.62,-0.861 6.599,-2.361 6.475,-2.415 6.36,-2.523 5.284,-1.285 3.456,-0.623 1.64,0.074 0.016,-0.157 0,0" />
        </g>
        <g transform="translate(174.3117,329.4802)" id="g340">
          <path id="path342" style="fill:#1a2e35;fill-opacity:1;fill-rule:nonzero;stroke:none"
            d="M 0,0 C 0.184,-0.012 -0.104,-2.211 0.262,-4.834 0.618,-7.48 1.866,-9.321 1.726,-9.403 1.676,-9.438 1.293,-9.03 0.847,-8.245 0.411,-7.461 -0.062,-6.279 -0.253,-4.912 -0.632,-2.166 -0.099,0.023 0,0" />
        </g>
        <g transform="translate(217.3981,293.9719)" id="g344">
          <path id="path346" style="fill:#1a2e35;fill-opacity:1;fill-rule:nonzero;stroke:none"
            d="M 0,0 C -0.056,0.123 0.394,0.484 1.244,0.832 2.09,1.18 3.35,1.476 4.759,1.463 6.169,1.448 7.423,1.127 8.262,0.762 9.105,0.398 9.547,0.028 9.489,-0.094 9.361,-0.372 7.341,0.417 4.749,0.422 2.158,0.468 0.123,-0.28 0,0" />
        </g>
        <g transform="translate(194.0158,296.1779)" id="g348">
          <path id="path350" style="fill:#1a2e35;fill-opacity:1;fill-rule:nonzero;stroke:none"
            d="M 0,0 C -0.056,0.123 0.394,0.484 1.244,0.832 2.09,1.18 3.35,1.475 4.759,1.463 6.169,1.447 7.423,1.127 8.262,0.762 9.105,0.398 9.547,0.028 9.489,-0.094 9.361,-0.372 7.341,0.417 4.749,0.422 2.158,0.468 0.123,-0.28 0,0" />
        </g>
        <g transform="translate(215.5929,292.3239)" id="g352">
          <path id="path354" style="fill:#1a2e35;fill-opacity:1;fill-rule:nonzero;stroke:none"
            d="m 0,0 c 0.013,-0.013 0.025,-0.227 0.04,-0.621 0.013,-0.443 0.03,-1.004 0.05,-1.692 0.016,-0.743 0.034,-1.62 0.055,-2.624 0.004,-1.013 0.064,-2.193 0.499,-3.401 0.417,-1.205 1.141,-2.443 2.21,-3.495 1.08,-1.033 2.491,-1.894 4.134,-2.27 0.815,-0.193 1.68,-0.288 2.557,-0.224 0.876,0.041 1.768,0.219 2.617,0.552 1.713,0.628 3.263,1.864 4.312,3.489 1.004,1.552 1.455,3.361 1.406,5.119 0.005,1.789 0.009,3.517 0.014,5.167 l 0.241,-0.242 C 12.896,-0.194 8.412,-0.154 5.158,-0.125 3.597,-0.097 2.333,-0.075 1.39,-0.059 0.986,-0.047 0.65,-0.037 0.371,-0.029 0.136,-0.02 0.009,-0.01 0,0 -0.02,0.019 0.43,0.038 1.285,0.058 2.214,0.075 3.46,0.097 4.998,0.124 8.292,0.153 12.831,0.194 18.135,0.242 L 18.376,0.244 18.377,0 c 0.005,-1.65 0.009,-3.378 0.014,-5.167 0.059,-1.816 -0.415,-3.767 -1.479,-5.401 -1.11,-1.721 -2.756,-3.026 -4.571,-3.685 -0.9,-0.349 -1.844,-0.532 -2.769,-0.571 -0.926,-0.061 -1.839,0.044 -2.697,0.255 -1.729,0.41 -3.207,1.332 -4.324,2.428 -1.108,1.117 -1.845,2.423 -2.257,3.686 -0.428,1.269 -0.466,2.489 -0.44,3.541 0.021,1.031 0.04,1.931 0.055,2.693 0.021,0.679 0.038,1.231 0.051,1.669 C -0.025,-0.177 -0.013,0.013 0,0" />
        </g>
        <g transform="translate(191.0763,292.841)" id="g356">
          <path id="path358" style="fill:#1a2e35;fill-opacity:1;fill-rule:nonzero;stroke:none"
            d="m 0,0 c 0.013,-0.013 0.025,-0.227 0.04,-0.62 0.013,-0.444 0.03,-1.005 0.05,-1.692 0.016,-0.744 0.034,-1.62 0.055,-2.625 0.004,-1.013 0.064,-2.192 0.499,-3.401 0.418,-1.205 1.141,-2.443 2.21,-3.495 1.08,-1.033 2.491,-1.894 4.134,-2.27 0.815,-0.193 1.68,-0.287 2.557,-0.224 0.877,0.041 1.768,0.219 2.617,0.552 1.713,0.628 3.264,1.864 4.312,3.489 1.005,1.552 1.455,3.361 1.406,5.119 0.005,1.789 0.01,3.518 0.014,5.167 l 0.242,-0.242 C 12.896,-0.194 8.413,-0.154 5.158,-0.124 3.597,-0.097 2.333,-0.075 1.39,-0.059 0.986,-0.047 0.651,-0.037 0.371,-0.029 0.136,-0.02 0.01,-0.01 0,0 c -0.02,0.02 0.431,0.038 1.285,0.059 0.93,0.016 2.175,0.038 3.714,0.065 3.293,0.029 7.833,0.07 13.137,0.118 l 0.241,0.002 V 0 c 0.005,-1.649 0.01,-3.378 0.014,-5.167 0.059,-1.816 -0.415,-3.766 -1.479,-5.401 -1.11,-1.721 -2.756,-3.026 -4.571,-3.685 -0.9,-0.349 -1.843,-0.532 -2.769,-0.57 -0.926,-0.061 -1.839,0.043 -2.697,0.254 -1.729,0.41 -3.206,1.332 -4.324,2.429 -1.108,1.116 -1.844,2.423 -2.257,3.685 -0.428,1.269 -0.466,2.489 -0.439,3.541 0.021,1.031 0.039,1.931 0.055,2.693 0.02,0.679 0.037,1.231 0.05,1.669 C -0.025,-0.177 -0.013,0.013 0,0" />
        </g>
        <g transform="translate(215.8136,291.5949)" id="g360">
          <path id="path362" style="fill:#1a2e35;fill-opacity:1;fill-rule:nonzero;stroke:none"
            d="m 0,0 c 0,-0.144 -1.546,-0.26 -3.453,-0.26 -1.906,0 -3.452,0.116 -3.452,0.26 0,0.144 1.546,0.26 3.452,0.26 C -1.546,0.26 0,0.144 0,0" />
        </g>
        <g transform="translate(171.9552,291.4577)" id="g364">
          <path id="path366" style="fill:#1a2e35;fill-opacity:1;fill-rule:nonzero;stroke:none"
            d="M 0,0 C 0,0.144 4.28,0.273 9.56,0.29 14.841,0.305 19.122,0.202 19.122,0.058 19.123,-0.086 14.843,-0.215 9.561,-0.231 4.282,-0.247 0,-0.144 0,0" />
        </g>
      </g>
    </g>
    <g id="g368">
      <g clip-path="url(#clipPath374)" id="g370">
        <g transform="translate(364.0914,279.0349)" id="g376">
          <path id="path378" style="fill:#52843c;fill-opacity:1;fill-rule:nonzero;stroke:none"
            d="M 0,0 -29.769,10.69 -59.249,0.144 c -3.763,-1.777 -7.064,-2.842 -7.064,-6.348 v -17.455 c 0,-12.123 3.176,-24.135 9.711,-34.74 5.499,-8.925 14.014,-18.115 27.123,-23.955 12.049,3.915 21.044,14.349 26.543,23.273 6.535,10.605 9.711,22.618 9.711,34.741 V -8.643 C 6.775,-3.644 4.126,-1.202 0,0" />
        </g>
        <g id="g380">
          <g id="g382" />
          <g id="g394">
            <g style="opacity:0.30000299" id="g392" clip-path="url(#clipPath386)">
              <g id="g390" transform="translate(334.6119,206.8112)">
                <path id="path388" style="fill:#000000;fill-opacity:1;fill-rule:nonzero;stroke:none"
                  d="m 0,0 c -10.371,4.621 -17.107,12.046 -21.458,19.106 -5.171,8.391 -7.684,17.896 -7.684,27.486 v 12.245 c 0,2.774 1.673,5.372 4.996,6.923 l 23.862,8.922 -0.005,8.232 -29.481,-10.546 c -3.093,-1.352 -7.063,-2.842 -7.063,-6.348 V 48.564 c 0,-12.123 3.176,-24.134 9.711,-34.74 C -21.623,4.899 -13.108,-4.29 0,-10.13 Z" />
              </g>
            </g>
          </g>
        </g>
        <g id="g396">
          <g id="g398" />
          <g id="g410">
            <g style="opacity:0.39999402" id="g408" clip-path="url(#clipPath402)">
              <g id="g406" transform="translate(334.6119,196.6813)">
                <path id="path404" style="fill:#000000;fill-opacity:1;fill-rule:nonzero;stroke:none"
                  d="m 0,0 c 2.088,0.699 4.007,1.504 5.849,2.508 4.942,2.692 9.158,6.389 12.376,9.735 3.598,3.743 6.28,7.788 8.608,11.567 6.535,10.605 9.711,22.618 9.422,35.074 l 0.017,14.412 c -0.017,7.177 -3.698,7.706 -6.793,9.058 l -29.768,10.69 0.005,-8.232 24.14,-9.066 c 3.324,-1.551 4.997,-4.149 4.997,-6.923 V 56.578 c 0,-9.591 -2.514,-19.095 -7.684,-27.485 C 16.818,22.032 10.371,14.751 0,10.13 Z" />
              </g>
            </g>
          </g>
        </g>
        <g id="g412">
          <g id="g414" />
          <g id="g426">
            <g style="opacity:0.5" id="g424" clip-path="url(#clipPath418)">
              <g id="g422" transform="translate(340.5553,254.2092)">
                <path id="path420" style="fill:#ffffff;fill-opacity:1;fill-rule:nonzero;stroke:none"
                  d="m 0,0 h -12.128 l 0.033,2.336 c 0,3.343 2.72,6.063 6.064,6.063 3.343,0 6.063,-2.72 6.063,-6.051 z m -3.97,-14.762 h -3.773 l 0.589,2.724 c -0.654,0.407 -1.09,1.128 -1.09,1.954 0,1.27 1.03,2.3 2.301,2.3 1.27,0 2.3,-1.03 2.3,-2.3 0,-0.795 -0.404,-1.498 -1.018,-1.91 0.266,-1.056 0.691,-2.768 0.691,-2.768 M 1.665,-0.02 1.697,2.336 c 0,4.262 -3.467,7.729 -7.728,7.729 -4.262,0 -7.729,-3.467 -7.729,-7.717 l -0.034,-2.4 c -2.086,-0.309 -3.687,-2.101 -3.687,-4.273 v -13.896 c 0,-2.388 1.936,-4.324 4.325,-4.324 H 1.27 c 2.388,0 4.325,1.936 4.325,4.324 v 13.896 c 0,2.255 -1.727,4.105 -3.93,4.305" />
              </g>
            </g>
          </g>
        </g>
        <g transform="translate(310.2946,254.3586)" id="g428">
          <path id="path430" style="fill:#ffffff;fill-opacity:1;fill-rule:nonzero;stroke:none"
            d="m 0,0 c -0.066,-0.009 -0.272,0.909 -0.447,2.418 -0.178,1.507 -0.311,3.607 -0.241,5.926 0.032,1.159 0.109,2.262 0.214,3.262 0.096,0.998 0.279,1.934 0.665,2.634 0.379,0.704 0.907,1.124 1.304,1.31 0.403,0.188 0.655,0.179 0.659,0.151 C 2.205,15.635 1.149,15.428 0.521,14.075 0.211,13.42 0.073,12.551 0.004,11.562 -0.074,10.57 -0.136,9.477 -0.168,8.329 -0.236,6.034 -0.164,3.954 -0.08,2.449 -0.001,0.943 0.076,0.01 0,0" />
        </g>
        <g transform="translate(310.7321,246.7604)" id="g432">
          <path id="path434" style="fill:#ffffff;fill-opacity:1;fill-rule:nonzero;stroke:none"
            d="M 0,0 C -0.145,-0.003 -0.275,0.714 -0.292,1.602 -0.31,2.489 -0.207,3.211 -0.063,3.214 0.08,3.217 0.211,2.5 0.229,1.611 0.246,0.725 0.144,0.003 0,0" />
        </g>
      </g>
    </g>
    <g transform="translate(279.3248,174.7751)" id="g436">
      <path id="path438" style="fill:#1a2e35;fill-opacity:1;fill-rule:nonzero;stroke:none"
        d="m 0,0 -33.195,-82.088 h -59.854 v -3.706 H 85.226 L 121.691,0 Z" />
    </g>
    <g id="g440">
      <g clip-path="url(#clipPath446)" id="g442">
        <g transform="translate(330.0631,126.3112)" id="g448">
          <path id="path450" style="fill:#fafafa;fill-opacity:1;fill-rule:nonzero;stroke:none"
            d="m 0,0 c -1.202,-4.131 -4.705,-6.744 -7.822,-5.837 -3.118,0.907 -4.67,4.992 -3.468,9.124 1.203,4.131 4.705,6.744 7.823,5.837 C -0.35,8.217 1.203,4.132 0,0" />
        </g>
      </g>
    </g>
  </g>
</svg>
