<svg width="71" height="23" viewBox="0 0 71 23" fill="none" xmlns="http://www.w3.org/2000/svg">
<g clip-path="url(#clip0)">
<path d="M43.5798 4.88999C43.2498 4.56999 43.0798 4.11999 43.0598 3.52999L43.0498 3.33999C43.0498 2.71999 43.2098 2.22999 43.5398 1.86999C43.8698 1.50999 44.3198 1.32999 44.8898 1.32999C45.4798 1.32999 45.9398 1.50999 46.2598 1.86999C46.5798 2.22999 46.7398 2.69999 46.7398 3.29999V3.45999C46.7398 3.50999 46.7198 3.54999 46.6898 3.58999C46.6498 3.61999 46.6098 3.63999 46.5598 3.63999H44.0898V3.69999C44.0998 3.97999 44.1798 4.20999 44.3198 4.38999C44.4598 4.56999 44.6598 4.65999 44.9098 4.65999C45.1898 4.65999 45.4198 4.54999 45.5998 4.31999C45.6498 4.26999 45.6798 4.22999 45.6998 4.21999C45.7198 4.20999 45.7698 4.19999 45.8298 4.19999H46.4898C46.5398 4.19999 46.5698 4.20999 46.6098 4.23999C46.6398 4.26999 46.6598 4.29999 46.6598 4.33999C46.6598 4.45999 46.5898 4.59999 46.4498 4.75999C46.3098 4.91999 46.1098 5.05999 45.8398 5.17999C45.5798 5.29999 45.2698 5.35999 44.9198 5.35999C44.3398 5.35999 43.8998 5.19999 43.5798 4.88999ZM45.7098 3.00999V2.98999C45.7098 2.69999 45.6398 2.45999 45.4898 2.28999C45.3398 2.10999 45.1398 2.02999 44.8898 2.02999C44.6398 2.02999 44.4398 2.11999 44.2898 2.28999C44.1498 2.46999 44.0698 2.69999 44.0698 2.98999V3.00999H45.7098V3.00999Z" fill="#4D4D4D"/>
<path d="M47.6696 5.23999C47.6396 5.19999 47.6196 5.15999 47.6196 5.10999V0.259987C47.6196 0.199987 47.6396 0.159987 47.6696 0.129987C47.6996 0.0999866 47.7496 0.0799866 47.7996 0.0799866H48.4796C48.5396 0.0799866 48.5796 0.0999866 48.6096 0.129987C48.6396 0.169987 48.6596 0.209987 48.6596 0.259987V2.16999H50.8296V0.259987C50.8296 0.199987 50.8496 0.159987 50.8796 0.129987C50.9096 0.0999866 50.9596 0.0799866 51.0096 0.0799866H51.6996C51.7496 0.0799866 51.7996 0.0999866 51.8296 0.129987C51.8596 0.169987 51.8796 0.209987 51.8796 0.259987V5.10999C51.8796 5.15999 51.8596 5.19999 51.8296 5.23999C51.7996 5.26999 51.7496 5.28999 51.6996 5.28999H51.0096C50.9596 5.28999 50.9196 5.26999 50.8796 5.23999C50.8396 5.19999 50.8296 5.15999 50.8296 5.10999V3.11999H48.6596V5.10999C48.6596 5.15999 48.6396 5.19999 48.6096 5.23999C48.5696 5.26999 48.5296 5.28999 48.4796 5.28999H47.7996C47.7396 5.28999 47.6996 5.26999 47.6696 5.23999Z" fill="#4D4D4D"/>
<path d="M53.32 4.88999C52.99 4.56999 52.82 4.11999 52.8 3.52999L52.79 3.33999C52.79 2.71999 52.95 2.22999 53.28 1.86999C53.61 1.50999 54.06 1.32999 54.63 1.32999C55.22 1.32999 55.68 1.50999 56 1.86999C56.32 2.22999 56.48 2.69999 56.48 3.29999V3.45999C56.48 3.50999 56.46 3.54999 56.43 3.58999C56.39 3.61999 56.35 3.63999 56.3 3.63999H53.83V3.69999C53.84 3.97999 53.92 4.20999 54.06 4.38999C54.2 4.56999 54.4 4.65999 54.65 4.65999C54.93 4.65999 55.16 4.54999 55.34 4.31999C55.39 4.26999 55.42 4.22999 55.44 4.21999C55.46 4.20999 55.51 4.19999 55.57 4.19999H56.23C56.28 4.19999 56.31 4.20999 56.35 4.23999C56.38 4.26999 56.4 4.29999 56.4 4.33999C56.4 4.45999 56.33 4.59999 56.19 4.75999C56.05 4.91999 55.85 5.05999 55.58 5.17999C55.32 5.29999 55.01 5.35999 54.66 5.35999C54.08 5.35999 53.64 5.19999 53.32 4.88999ZM55.45 3.00999V2.98999C55.45 2.69999 55.38 2.45999 55.23 2.28999C55.08 2.10999 54.88 2.02999 54.63 2.02999C54.38 2.02999 54.18 2.11999 54.03 2.28999C53.89 2.46999 53.81 2.69999 53.81 2.98999V3.00999H55.45V3.00999Z" fill="#4D4D4D"/>
<path d="M57.7 5.21C57.49 5.11 57.32 4.97 57.2 4.8C57.08 4.63 57.02 4.43 57.02 4.23C57.02 3.89 57.16 3.62 57.43 3.41C57.7 3.2 58.08 3.06 58.55 2.99L59.57 2.84V2.67C59.57 2.46 59.51 2.3 59.41 2.19C59.3 2.08 59.13 2.03 58.89 2.03C58.73 2.03 58.59 2.06 58.5 2.12C58.4 2.18 58.32 2.24 58.26 2.3C58.2 2.36 58.16 2.4 58.14 2.42C58.12 2.48 58.08 2.51 58.03 2.51H57.45C57.41 2.51 57.37 2.49 57.33 2.47C57.3 2.44 57.28 2.4 57.28 2.35C57.29 2.23 57.35 2.09 57.46 1.93C57.58 1.77 57.76 1.64 58 1.52C58.24 1.4 58.54 1.34 58.9 1.34C59.49 1.34 59.91 1.47 60.18 1.73C60.45 1.99 60.58 2.34 60.58 2.77V5.11C60.58 5.16 60.56 5.2 60.53 5.24C60.5 5.27 60.45 5.29 60.4 5.29H59.78C59.73 5.29 59.69 5.27 59.65 5.24C59.62 5.2 59.6 5.16 59.6 5.11V4.82C59.49 4.98 59.34 5.11 59.14 5.21C58.94 5.31 58.69 5.36 58.4 5.36C58.14 5.36 57.91 5.31 57.7 5.21ZM59.32 4.38C59.49 4.2 59.58 3.94 59.58 3.61V3.46L58.84 3.58C58.27 3.67 57.98 3.86 57.98 4.15C57.98 4.31 58.05 4.43 58.18 4.52C58.31 4.61 58.47 4.65 58.65 4.65C58.92 4.65 59.14 4.56 59.32 4.38Z" fill="#4D4D4D"/>
<path d="M61.59 5.24C61.56 5.2 61.54 5.16 61.54 5.11V0.18C61.54 0.12 61.56 0.08 61.59 0.05C61.62 0.02 61.66 0 61.71 0H62.34C62.39 0 62.44 0.02 62.47 0.05C62.5 0.08 62.52 0.13 62.52 0.18V5.11C62.52 5.16 62.5 5.2 62.47 5.24C62.44 5.27 62.39 5.29 62.34 5.29H61.71C61.66 5.29 61.62 5.27 61.59 5.24Z" fill="#4D4D4D"/>
<path d="M64.2499 4.93C64.0199 4.7 63.8999 4.35 63.8999 3.89V2.21H63.3099C63.2599 2.21 63.2199 2.19 63.1799 2.16C63.1399 2.13 63.1299 2.08 63.1299 2.03V1.59C63.1299 1.54 63.1499 1.5 63.1799 1.46C63.2099 1.42 63.2599 1.41 63.3099 1.41H63.8999V0.18C63.8999 0.12 63.9199 0.08 63.9499 0.05C63.9899 0.02 64.0299 0 64.0799 0H64.6999C64.7599 0 64.7999 0.02 64.8299 0.05C64.8599 0.08 64.8799 0.13 64.8799 0.18V1.42H65.8099C65.8599 1.42 65.8999 1.44 65.9399 1.47C65.9799 1.5 65.9899 1.55 65.9899 1.6V2.04C65.9899 2.09 65.9699 2.13 65.9399 2.17C65.9099 2.21 65.8599 2.22 65.8099 2.22H64.8799V3.82C64.8799 4.03 64.9199 4.2 64.9899 4.3C65.0599 4.41 65.1899 4.46 65.3499 4.46H65.8699C65.9199 4.46 65.9699 4.48 65.9999 4.51C66.0299 4.54 66.0499 4.59 66.0499 4.64V5.11C66.0499 5.16 66.0299 5.2 65.9999 5.24C65.9699 5.27 65.9199 5.29 65.8699 5.29H65.2599C64.8099 5.29 64.4699 5.17 64.2499 4.93Z" fill="#4D4D4D"/>
<path d="M66.78 5.24C66.75 5.2 66.73 5.16 66.73 5.11V0.18C66.73 0.12 66.75 0.08 66.78 0.05C66.81 0.02 66.86 0 66.91 0H67.59C67.65 0 67.69 0.02 67.72 0.05C67.75 0.08 67.77 0.13 67.77 0.18V1.88C68.07 1.52 68.47 1.34 68.97 1.34C69.43 1.34 69.79 1.49 70.06 1.79C70.33 2.09 70.47 2.5 70.47 3.02V5.11C70.47 5.16 70.45 5.2 70.42 5.24C70.39 5.27 70.34 5.29 70.29 5.29H69.61C69.55 5.29 69.51 5.27 69.48 5.24C69.45 5.2 69.43 5.16 69.43 5.11V3.06C69.43 2.77 69.36 2.55 69.22 2.39C69.08 2.23 68.88 2.15 68.61 2.15C68.36 2.15 68.15 2.23 68 2.4C67.85 2.56 67.77 2.79 67.77 3.07V5.12C67.77 5.17 67.75 5.21 67.72 5.25C67.69 5.28 67.64 5.3 67.59 5.3H66.91C66.86 5.29 66.81 5.27 66.78 5.24Z" fill="#4D4D4D"/>
<path d="M0.14 22C0.05 21.9 0 21.78 0 21.65V8.26998C0 8.11998 0.04 7.99998 0.13 7.89998C0.22 7.79998 0.34 7.75998 0.49 7.75998H9.55C9.7 7.75998 9.82 7.80998 9.92 7.89998C10.02 7.99998 10.06 8.11998 10.06 8.26998V9.64998C10.06 9.79998 10.01 9.91998 9.92 10.01C9.82 10.1 9.7 10.14 9.55 10.14H2.81V13.73H9.1C9.25 13.73 9.37 13.78 9.47 13.87C9.57 13.97 9.61 14.09 9.61 14.24V15.53C9.61 15.68 9.56 15.8 9.47 15.89C9.37 15.98 9.25 16.02 9.1 16.02H2.81V19.74H9.71C9.86 19.74 9.98 19.79 10.08 19.87C10.18 19.96 10.22 20.08 10.22 20.23V21.63C10.22 21.78 10.17 21.9 10.08 21.99C9.98 22.08 9.86 22.12 9.71 22.12H0.49C0.36 22.14 0.24 22.09 0.14 22Z" fill="black"/>
<path d="M14.9702 21.56L11.7402 14.12C11.7302 14.08 11.7202 14.02 11.7202 13.94C11.7202 13.82 11.7602 13.71 11.8402 13.63C11.9202 13.55 12.0202 13.51 12.1502 13.51H13.9802C14.1602 13.51 14.3002 13.56 14.4102 13.65C14.5202 13.75 14.5902 13.85 14.6402 13.96L16.9102 18.73L20.3602 8.20998C20.3802 8.09998 20.4502 7.99998 20.5602 7.89998C20.6702 7.79998 20.8102 7.75998 20.9902 7.75998H22.8402C22.9502 7.75998 23.0502 7.79998 23.1402 7.87998C23.2302 7.95998 23.2702 8.05998 23.2702 8.18998L23.2302 8.36998L18.8502 21.56C18.7102 21.94 18.4502 22.14 18.0502 22.14H15.7702C15.3602 22.14 15.0902 21.95 14.9702 21.56Z" fill="black"/>
<path d="M26.1898 20.93C25.1498 19.99 24.5998 18.58 24.5498 16.72C24.5398 16.32 24.5298 15.74 24.5298 14.97C24.5298 14.19 24.5398 13.6 24.5498 13.2C24.5998 11.38 25.1698 9.97999 26.2298 9.00999C27.2998 8.03999 28.7398 7.54999 30.5598 7.54999C32.3698 7.54999 33.8098 8.03999 34.8898 9.00999C35.9698 9.97999 36.5298 11.38 36.5798 13.2C36.6098 14 36.6198 14.58 36.6198 14.97C36.6198 15.34 36.6098 15.92 36.5798 16.72C36.5298 18.58 35.9698 19.99 34.9298 20.93C33.8798 21.88 32.4298 22.35 30.5598 22.35C28.6898 22.34 27.2298 21.87 26.1898 20.93ZM32.7398 19.14C33.2698 18.59 33.5598 17.75 33.5998 16.61C33.6298 15.79 33.6398 15.23 33.6398 14.95C33.6398 14.64 33.6298 14.08 33.5998 13.29C33.5598 12.17 33.2598 11.33 32.7198 10.77C32.1698 10.22 31.4498 9.93999 30.5598 9.93999C29.6598 9.93999 28.9298 10.22 28.3798 10.77C27.8298 11.33 27.5398 12.16 27.5198 13.29C27.5098 13.69 27.4998 14.24 27.4998 14.95C27.4998 15.65 27.5098 16.2 27.5198 16.61C27.5498 17.73 27.8298 18.57 28.3698 19.13C28.9098 19.68 29.6398 19.96 30.5598 19.96C31.4798 19.96 32.2098 19.69 32.7398 19.14Z" fill="black"/>
<path d="M40.4601 22.02C40.3701 21.94 40.3301 21.83 40.3301 21.69V8.22998C40.3301 8.07998 40.3701 7.95998 40.4601 7.87998C40.5501 7.79998 40.6601 7.75998 40.8001 7.75998H41.3101C41.5201 7.75998 41.6601 7.84998 41.7401 8.02998L46.4001 17.11L51.0801 8.02998C51.1801 7.84998 51.3201 7.75998 51.5101 7.75998H52.0001C52.1501 7.75998 52.2701 7.79998 52.3501 7.87998C52.4301 7.95998 52.4701 8.07998 52.4701 8.22998V21.69C52.4701 21.83 52.4301 21.94 52.3401 22.02C52.2501 22.1 52.1401 22.14 52.0001 22.14H51.6301C51.4901 22.14 51.3801 22.1 51.3001 22.02C51.2201 21.94 51.1801 21.83 51.1801 21.69V10.55L47.2601 18.28C47.1401 18.55 46.9201 18.69 46.6201 18.69H46.1701C45.8701 18.69 45.6601 18.55 45.5301 18.28L41.6101 10.55V21.69C41.6101 21.83 41.5701 21.94 41.4901 22.02C41.4101 22.1 41.3001 22.14 41.1601 22.14H40.7901C40.6601 22.14 40.5401 22.1 40.4601 22.02Z" fill="#4D4D4D"/>
<path d="M56.4701 22.02C56.3901 21.94 56.3501 21.83 56.3501 21.69V8.20998C56.3501 8.06998 56.3901 7.95998 56.4701 7.87998C56.5501 7.79998 56.6601 7.75998 56.8001 7.75998H57.1901C57.3301 7.75998 57.4401 7.79998 57.5201 7.87998C57.6001 7.95998 57.6401 8.06998 57.6401 8.20998V21.69C57.6401 21.83 57.6001 21.94 57.5201 22.02C57.4401 22.1 57.3301 22.14 57.1901 22.14H56.8001C56.6601 22.14 56.5501 22.1 56.4701 22.02Z" fill="#4D4D4D"/>
<path d="M63.0303 21.82C62.2403 21.47 61.6403 21.02 61.2203 20.45C60.8003 19.89 60.5803 19.29 60.5503 18.64C60.5503 18.53 60.5903 18.43 60.6703 18.35C60.7503 18.27 60.8503 18.23 60.9803 18.23H61.3903C61.6403 18.23 61.7903 18.37 61.8403 18.64C61.9403 19.3 62.3103 19.87 62.9703 20.37C63.6303 20.86 64.5703 21.11 65.8003 21.11C67.1003 21.11 68.0703 20.87 68.7103 20.4C69.3503 19.93 69.6603 19.27 69.6603 18.42C69.6603 17.9 69.5103 17.47 69.2003 17.14C68.8903 16.8 68.4403 16.51 67.8503 16.26C67.2603 16.01 66.3703 15.69 65.1803 15.3C64.1203 14.96 63.3003 14.62 62.7003 14.29C62.1003 13.96 61.6603 13.56 61.3703 13.08C61.0803 12.6 60.9403 11.99 60.9403 11.25C60.9403 10.55 61.1303 9.91999 61.5103 9.35999C61.8903 8.79999 62.4303 8.35999 63.1403 8.02999C63.8503 7.70999 64.7003 7.54999 65.6903 7.54999C66.7003 7.54999 67.5703 7.72999 68.3003 8.08999C69.0303 8.44999 69.5703 8.90999 69.9403 9.46999C70.3103 10.02 70.5103 10.58 70.5403 11.14C70.5403 11.25 70.5003 11.35 70.4303 11.43C70.3503 11.51 70.2503 11.55 70.1103 11.55H69.7003C69.6003 11.55 69.5103 11.52 69.4103 11.46C69.3103 11.4 69.2603 11.29 69.2503 11.14C69.1703 10.46 68.8003 9.88999 68.1503 9.43999C67.5003 8.99999 66.6803 8.76999 65.6903 8.76999C64.6403 8.76999 63.8003 8.96999 63.1703 9.38999C62.5503 9.79999 62.2303 10.42 62.2303 11.24C62.2303 11.77 62.3703 12.22 62.6503 12.57C62.9303 12.92 63.3503 13.22 63.9103 13.47C64.4703 13.72 65.3003 14.03 66.4003 14.38C67.5203 14.74 68.4003 15.08 69.0303 15.41C69.6603 15.74 70.1403 16.14 70.4603 16.6C70.7803 17.07 70.9403 17.67 70.9403 18.41C70.9403 19.64 70.4803 20.61 69.5603 21.3C68.6403 21.99 67.3803 22.34 65.7803 22.34C64.7503 22.34 63.8203 22.17 63.0303 21.82Z" fill="#4D4D4D"/>
</g>
<defs>
<clipPath id="clip0">
<rect width="70.97" height="22.34" fill="white"/>
</clipPath>
</defs>
</svg>
