<svg width="220" height="48" viewBox="0 0 220 48" fill="none" xmlns="http://www.w3.org/2000/svg">
<g clip-path="url(#clip0)">
<path d="M60 32.3364C60.0304 32.7042 60.1484 33.0594 60.3441 33.3722C60.5786 33.6786 60.9103 33.8961 61.2847 33.9892C61.6591 34.0823 62.054 34.0455 62.4047 33.8847C62.7394 33.7639 63.0253 33.5367 63.2183 33.2378C63.4114 32.939 63.5011 32.585 63.4735 32.2303C63.493 27.1353 63.493 22.0415 63.4735 16.9489C63.4735 16.1327 63.1075 15.4373 62.2547 15.2067C60.8858 14.8407 60 15.6459 60.0256 16.8977L60 32.3364Z" fill="black"/>
<path d="M202.378 33.8005C203.381 34.2434 204.332 33.7529 204.911 32.5341C206.517 29.1594 210.006 22.022 210.214 21.6926C210.437 22.0586 213.977 29.2106 215.536 32.5451C216.129 33.8188 217.414 34.4154 218.464 33.8993C218.801 33.6574 219.045 33.3084 219.158 32.9095C219.27 32.5105 219.244 32.0852 219.083 31.7032C218.578 30.5319 217.472 28.409 216.964 27.3512C215.334 23.9351 213.706 20.5335 212.081 17.1466C211.715 16.3414 211.188 15.6496 210.189 15.6825C209.189 15.7155 208.772 16.3743 208.399 17.1466C206.17 21.8097 203.926 26.4655 201.704 31.1286C201.137 32.3218 201.43 33.3796 202.378 33.8005Z" fill="black"/>
<path d="M199.351 26.5058C198.524 31.4873 194.308 34.3167 189.535 33.9872C187.589 33.889 185.722 33.1879 184.193 31.9812C182.663 30.7745 181.547 29.1219 180.999 27.2525C180.742 26.4166 180.599 25.5498 180.574 24.6757C180.52 22.1465 180.542 19.6173 180.574 17.0881C180.574 15.9205 181.372 15.1043 182.405 15.1153C183.437 15.1262 184.132 15.8802 184.147 17.0698C184.176 19.4782 184.147 21.8866 184.165 24.2914C184.187 27.2964 185.56 29.218 188.367 30.2319C191.511 31.3556 195.413 29.0679 195.962 25.7738C196.046 25.2312 196.087 24.683 196.086 24.134C196.086 21.9122 196.086 19.6868 196.086 17.4614C196.086 15.9681 196.694 15.1445 197.799 15.1116C198.905 15.0787 199.662 15.9717 199.666 17.4285C199.666 18.6181 199.666 19.8076 199.666 20.9935C199.7 22.8363 199.595 24.6789 199.351 26.5058Z" fill="black"/>
<path d="M67.2511 24.4561C67.2511 21.9892 67.2511 19.5185 67.2511 17.0516C67.2511 15.8364 67.833 15.097 69.0446 15.0933C72.2106 15.0933 75.395 14.9982 78.5354 15.313C82.4628 15.7046 85.7607 19.632 86.145 23.5411C86.3775 25.7525 85.8283 27.9755 84.5927 29.8242C83.3571 31.6729 81.5132 33.0306 79.381 33.6615C78.654 33.8834 77.9006 34.0065 77.1409 34.0275C74.5532 34.0751 71.9617 34.0532 69.3703 34.0275C67.8513 34.0275 67.2584 33.4383 67.2511 31.9376C67.2437 29.4523 67.2511 26.956 67.2511 24.4561ZM70.7465 24.5623C70.7465 26.2679 70.7465 27.9772 70.7465 29.6866C70.7465 30.2502 70.9149 30.5357 71.5262 30.5284C73.4441 30.5028 75.3694 30.5943 77.28 30.4662C78.781 30.3378 80.1774 29.6442 81.1866 28.5257C82.1958 27.4072 82.7427 25.9472 82.7167 24.4409C82.6907 22.9346 82.0936 21.4944 81.0463 20.4114C79.9991 19.3285 78.5796 18.6836 77.075 18.6071C75.2449 18.5376 73.4148 18.6071 71.5847 18.5742C70.9442 18.5632 70.7246 18.8194 70.7246 19.4453C70.7612 21.151 70.7465 22.8456 70.7465 24.5623Z" fill="black"/>
<path d="M133.08 18.6107C131.908 18.608 130.762 18.9517 129.786 19.5988C128.809 20.2459 128.046 21.1674 127.592 22.2473C127.139 23.3272 127.014 24.5172 127.235 25.6675C127.456 26.8178 128.013 27.8771 128.834 28.7119C129.656 29.5468 130.706 30.1199 131.853 30.3592C132.999 30.5985 134.191 30.4932 135.278 30.0566C136.365 29.62 137.299 28.8717 137.961 27.9057C138.624 26.9397 138.986 25.7994 139.002 24.6281C139.016 23.842 138.873 23.061 138.582 22.3308C138.29 21.6006 137.856 20.9359 137.305 20.3755C136.753 19.8152 136.095 19.3705 135.37 19.0674C134.644 18.7644 133.866 18.6091 133.08 18.6107Z" fill="black"/>
<path d="M154.426 3H111.773C108.95 2.99952 106.154 3.55518 103.546 4.63526C100.938 5.71534 98.5674 7.29867 96.5709 9.29484C94.5744 11.291 92.9906 13.6609 91.9101 16.2692C90.8296 18.8775 90.2734 21.6731 90.2734 24.4963C90.2734 30.1985 92.5386 35.6671 96.5706 39.6991C100.603 43.7312 106.071 45.9963 111.773 45.9963H154.426C160.128 45.9963 165.596 43.7312 169.628 39.6991C173.661 35.6671 175.926 30.1985 175.926 24.4963C175.926 21.6731 175.37 18.8775 174.289 16.2692C173.209 13.6609 171.625 11.291 169.628 9.29484C167.632 7.29867 165.262 5.71534 162.653 4.63526C160.045 3.55518 157.249 2.99952 154.426 3ZM113.798 33.7896C108.19 35.067 103.018 31.835 101.979 26.1764C101.542 23.8077 102.03 21.3618 103.341 19.3414C104.652 17.321 106.687 15.8794 109.028 15.3129C112.392 14.4491 115.357 15.3129 117.908 17.6152C118.871 18.4863 118.944 19.4453 118.219 20.2688C117.494 21.0924 116.458 21.0741 115.474 20.2359C112.293 17.5273 108.113 18.263 106.085 21.883C105.057 23.7131 105.353 26.5387 106.737 28.248C107.443 29.1416 108.394 29.81 109.474 30.1714C110.553 30.5328 111.715 30.5717 112.817 30.2831C114.852 29.7341 116.206 28.5189 117.04 26.3887H115.942C114.449 26.3887 112.952 26.4143 111.459 26.3704C111.22 26.3733 110.984 26.329 110.763 26.2401C110.541 26.1512 110.34 26.0195 110.17 25.8525C110 25.6854 109.864 25.4864 109.771 25.2669C109.679 25.0473 109.63 24.8116 109.629 24.5732C109.622 24.3361 109.663 24.1001 109.749 23.879C109.835 23.6579 109.965 23.4563 110.13 23.2858C110.295 23.1154 110.492 22.9796 110.71 22.8864C110.928 22.7932 111.163 22.7445 111.4 22.7431C113.992 22.7028 116.583 22.6992 119.174 22.7431C120.239 22.7431 120.917 23.5886 120.942 24.683C121.023 28.7312 117.776 32.8855 113.812 33.7896H113.798ZM132.783 34.097C130.287 34.0327 127.917 32.9874 126.186 31.1876C124.455 29.3877 123.504 26.9784 123.537 24.4817C123.512 19.3574 127.787 14.9652 132.944 15.0128C138.346 15.0457 142.49 19.0866 142.592 24.5512C142.709 29.8475 138.288 34.1446 132.798 34.097H132.783ZM162.083 18.4534C160.197 22.3576 158.308 26.2691 156.417 30.1879C156.022 31.0115 155.623 31.8314 155.242 32.6622C154.861 33.4931 154.36 34.0897 153.412 34.0714C152.464 34.0531 151.948 33.387 151.582 32.6073C149.839 28.9935 148.105 25.3772 146.377 21.7585C145.839 20.6312 145.279 19.5112 144.763 18.3801C144.269 17.3114 144.543 16.4512 145.528 15.8949C146.395 15.4044 147.358 15.6643 147.911 16.6891C148.778 18.3252 149.539 20.0163 150.345 21.6853C151.219 23.4934 152.083 25.3052 152.962 27.1097C153.086 27.3733 153.258 27.6148 153.478 27.9882C155.326 24.1706 157.087 20.5397 158.844 16.9014C159.433 15.6753 160.377 15.2177 161.406 15.6899C162.346 16.1548 162.646 17.2967 162.083 18.4534Z" fill="black"/>
<path d="M205.663 27.725H214.8" stroke="black" stroke-width="3"/>
</g>
<path d="M12.6077 45.3664C10.1738 43.512 8.41973 40.7304 7.82772 37.5073H0V3.55425C4.18794 5.67356 7.21378 10.3095 7.54268 15.1221L8.7267 24.659L8.15662 24.5928C6.90681 24.5928 5.81049 25.7849 5.81049 26.9549C5.81049 28.0587 6.6437 28.9859 7.74002 29.2287L9.16523 29.5599C11.5114 25.0784 12.8489 20.6853 12.8489 16.3805C12.8489 12.4951 12.3446 8.60968 12.2569 4.63598C12.2569 2.86989 12.9366 1.25834 14.011 0C15.1073 1.25834 15.7651 2.86989 15.7651 4.63598C15.7651 8.60968 15.1731 12.4951 15.1731 16.3805C15.1731 20.6853 16.5106 25.0784 18.8567 29.5599L20.2819 29.2287C21.3782 28.9859 22.2114 28.0366 22.2114 26.9549C22.2114 25.7628 21.1151 24.5928 19.8653 24.5928L19.2733 24.6811L20.4573 15.1442C21.0493 10.3316 23.8121 5.67356 28 3.57633V37.5294H20.1942C19.6022 40.7304 17.9358 43.6224 15.4143 45.3884C14.8222 45.8079 14.3179 46.3156 13.989 47C13.6821 46.3156 13.1778 45.8079 12.6077 45.3664ZM3.70556 25.7849C4.03445 24.5265 4.95536 23.4227 6.13939 22.7384L5.21848 14.8793C4.88958 12.4288 3.88097 10.2433 2.36805 8.45514V25.7628H3.70556V25.7849ZM7.65231 35.1451C7.65231 33.953 7.82772 32.8713 8.06891 31.7675L6.97259 31.5026C5.37196 30.9948 4.12216 29.7365 3.70556 28.1249H2.36805V35.1451H7.65231ZM12.8489 35.1451C12.8489 33.7102 11.7525 32.4519 10.3273 32.2752C10.0861 33.2024 9.91073 34.1296 9.91073 35.1451H12.8489ZM12.8489 37.5294H10.2396C10.6562 39.3838 11.5771 41.0836 12.8489 42.5186V37.5294ZM16.5325 30.178C15.5239 28.3236 14.603 26.3809 14.011 24.3499C13.419 26.3809 12.498 28.3236 11.4894 30.178C12.498 30.4209 13.3312 31.1052 14.011 31.8779C14.6907 31.1052 15.5239 30.4209 16.5325 30.178ZM18.1331 35.1451C18.1331 34.1296 17.9577 33.2024 17.7165 32.2752C16.2913 32.4519 15.195 33.7102 15.195 35.1451H18.1331ZM17.8042 37.5294H15.195V42.5186C16.4667 41.0615 17.3876 39.3838 17.8042 37.5294ZM25.6758 35.1451V28.1249H24.3383C23.9217 29.7365 22.65 30.9948 21.0713 31.5026L19.9749 31.7675C20.2161 32.8713 20.3915 33.953 20.3915 35.1451H25.6758ZM25.6758 25.7849V8.45514C24.1629 10.2212 23.0666 12.4288 22.8254 14.8793L21.9045 22.7384C23.0885 23.4227 24.0094 24.5045 24.3383 25.7849H25.6758Z" fill="black"/>
<line x1="45" x2="45" y2="48" stroke="black" stroke-width="2"/>
<defs>
<clipPath id="clip0">
<rect width="159.215" height="43" fill="white" transform="translate(60 3)"/>
</clipPath>
</defs>
</svg>
