<svg
            width="281"
            height="188"
            viewBox="0 0 281 188"
            fill="none"
            xmlns="http://www.w3.org/2000/svg"
          >
            <rect x="110" y="2" width="60" height="19" fill="#F9F8FA" />
            <path
              fill-rule="evenodd"
              clip-rule="evenodd"
              d="M52 21V0H54V21H52Z"
              fill="url(#paint0_linear)"
            />
            <path
              fill-rule="evenodd"
              clip-rule="evenodd"
              d="M-3.57628e-07 21L279 21V23L-3.57628e-07 23V21Z"
              fill="url(#paint1_linear)"
            />
            <path
              fill-rule="evenodd"
              clip-rule="evenodd"
              d="M110 21V0H112V21H110Z"
              fill="url(#paint2_linear)"
            />
            <path
              fill-rule="evenodd"
              clip-rule="evenodd"
              d="M168 21V0H170V21H168Z"
              fill="url(#paint3_linear)"
            />
            <path
              fill-rule="evenodd"
              clip-rule="evenodd"
              d="M226 21V0H228V21H226Z"
              fill="url(#paint4_linear)"
            />
            <path
              fill-rule="evenodd"
              clip-rule="evenodd"
              d="M275.576 2H5C3.34315 2 2 3.34315 2 5V183C2 184.657 3.34314 186 4.99999 186H275.576C277.233 186 278.576 184.657 278.576 183V5C278.576 3.34314 277.233 2 275.576 2ZM5 0C2.23858 0 0 2.23858 0 5V183C0 185.761 2.23857 188 4.99999 188H275.576C278.337 188 280.576 185.761 280.576 183V5C280.576 2.23858 278.337 0 275.576 0H5Z"
              fill="url(#paint5_linear)"
            />
            <path
              d="M262.758 31.0004L272.269 40.5114"
              stroke="#C6C6CE"
              stroke-width="3"
            />
            <path
              d="M272.27 31L262.758 40.5111"
              stroke="#C6C6CE"
              stroke-width="3"
            />
            <rect
              width="35"
              height="10"
              rx="1"
              transform="matrix(1 0 0 -1 237.788 180)"
              fill="#F0EFF3"
            />
            <mask id="path-11-inside-1" fill="white">
              <rect
                width="35"
                height="10"
                rx="1"
                transform="matrix(1 0 0 -1 198 180)"
              />
            </mask>
            <rect
              width="35"
              height="10"
              rx="1"
              transform="matrix(1 0 0 -1 198 180)"
              stroke="#F0EFF3"
              stroke-width="4"
              mask="url(#path-11-inside-1)"
            />
            <rect x="13" y="58" width="254" height="22" fill="#F0EFF3" />
            <path
              fill-rule="evenodd"
              clip-rule="evenodd"
              d="M256.641 71.4811C256.057 71.8972 255.343 72.1419 254.571 72.1419C252.599 72.1419 251 70.5431 251 68.571C251 66.5988 252.599 65 254.571 65C256.543 65 258.142 66.5988 258.142 68.571C258.142 69.3426 257.897 70.057 257.481 70.6409L259.827 72.9871C260.059 73.2183 260.057 73.5881 259.827 73.8174L259.817 73.8273C259.589 74.056 259.216 74.0566 258.987 73.8274L256.641 71.4811ZM254.571 71.3017C256.079 71.3017 257.302 70.0791 257.302 68.571C257.302 67.0628 256.079 65.8402 254.571 65.8402C253.063 65.8402 251.84 67.0628 251.84 68.571C251.84 70.0791 253.063 71.3017 254.571 71.3017Z"
              fill="#787890"
              stroke="#787890"
            />
            <defs>
              <linearGradient
                id="paint0_linear"
                x1="53"
                y1="0"
                x2="53"
                y2="21"
                gradientUnits="userSpaceOnUse"
              >
                <stop stop-color="#E6E4EB" />
                <stop offset="1" stop-color="#E6E4EB" stop-opacity="0.25" />
              </linearGradient>
              <linearGradient
                id="paint1_linear"
                x1="138.906"
                y1="18.5"
                x2="138.906"
                y2="32"
                gradientUnits="userSpaceOnUse"
              >
                <stop stop-color="#E6E4EB" />
                <stop offset="1" stop-color="#E6E4EB" stop-opacity="0.25" />
              </linearGradient>
              <linearGradient
                id="paint2_linear"
                x1="111"
                y1="0"
                x2="111"
                y2="21"
                gradientUnits="userSpaceOnUse"
              >
                <stop stop-color="#E6E4EB" />
                <stop offset="1" stop-color="#E6E4EB" stop-opacity="0.25" />
              </linearGradient>
              <linearGradient
                id="paint3_linear"
                x1="169"
                y1="0"
                x2="169"
                y2="21"
                gradientUnits="userSpaceOnUse"
              >
                <stop stop-color="#E6E4EB" />
                <stop offset="1" stop-color="#E6E4EB" stop-opacity="0.25" />
              </linearGradient>
              <linearGradient
                id="paint4_linear"
                x1="227"
                y1="0"
                x2="227"
                y2="21"
                gradientUnits="userSpaceOnUse"
              >
                <stop stop-color="#E6E4EB" />
                <stop offset="1" stop-color="#E6E4EB" stop-opacity="0.25" />
              </linearGradient>
              <linearGradient
                id="paint5_linear"
                x1="140.288"
                y1="0"
                x2="140.288"
                y2="188"
                gradientUnits="userSpaceOnUse"
              >
                <stop stop-color="#E6E4EB" />
                <stop offset="1" stop-color="#E6E4EB" stop-opacity="0.25" />
              </linearGradient>
            </defs>
          </svg>